# Blender 3.6.0
# www.blender.org
mtllib logo.mtl
o Cube
v -0.100000 2.061040 0.000000
v 0.100000 4.061040 -2.000000
v 0.100000 2.061040 -2.000000
v 0.100000 4.061040 -0.000000
v 0.100000 2.061040 -0.000000
v -0.100000 4.061040 -2.000000
v -0.100000 2.061040 -2.000000
v -0.100000 4.061040 -0.000000
vn -0.0000 1.0000 -0.0000
vn -0.0000 -0.0000 1.0000
vn -1.0000 -0.0000 -0.0000
vn -0.0000 -1.0000 -0.0000
vn 1.0000 -0.0000 -0.0000
vn -0.0000 -0.0000 -1.0000
vt 0.811328 0.766797
vt 0.811328 0.966797
vt 0.611328 0.966797
vt 0.611328 0.766797
vt 0.666406 0.622656
vt 0.866406 0.622656
vt 0.866406 0.822656
vt 0.666406 0.822656
vt 0.499024 0.500195
vt 0.499024 0.999023
vt 0.002149 0.997070
vt 0.002149 0.502148
vt 0.749219 0.720312
vt 0.949219 0.720312
vt 0.949219 0.920312
vt 0.749219 0.920312
vt 0.701562 0.790234
vt 0.701563 0.990234
vt 0.501562 0.990234
vt 0.501562 0.790234
vt 0.800000 0.600000
vt 0.800000 0.800000
vt 0.600000 0.800000
vt 0.600000 0.600000
s 0
usemtl Material
f 2/1/1 6/2/1 8/3/1 4/4/1
f 5/5/2 4/6/2 8/7/2 1/8/2
f 1/9/3 8/10/3 6/11/3 7/12/3
f 7/13/4 3/14/4 5/15/4 1/16/4
f 3/17/5 2/18/5 4/19/5 5/20/5
f 7/21/6 6/22/6 2/23/6 3/24/6
o Cube.001
v 0.100000 2.061040 0.000000
v 0.100000 0.061040 0.000000
v 0.100000 0.061040 2.000000
v -0.100000 2.061040 0.000000
v -0.100000 2.061040 2.000000
v 0.100000 2.061040 2.000000
v -0.100000 0.061040 0.000000
v -0.100000 0.061040 2.000000
vn -0.0000 1.0000 -0.0000
vn -0.0000 -0.0000 1.0000
vn -1.0000 -0.0000 -0.0000
vn -0.0000 -1.0000 -0.0000
vn 1.0000 -0.0000 -0.0000
vn -0.0000 -0.0000 -1.0000
vt 0.772656 0.715234
vt 0.863281 0.719141
vt 0.865234 0.805859
vt 0.768750 0.807812
vt 0.868359 0.898047
vt 0.664453 0.884375
vt 0.664453 0.684375
vt 0.864453 0.684375
vt 1.000176 0.001812
vt 0.999573 0.498723
vt 0.501842 0.500520
vt 0.500135 0.000775
vt 0.900391 0.723437
vt 0.900391 0.923437
vt 0.700391 0.923437
vt 0.700391 0.723437
vt 0.600000 1.000000
vt 0.600000 0.800000
vt 0.800000 0.800000
vt 0.800000 1.000000
vt 0.827734 0.710156
vt 0.827734 0.910156
vt 0.627734 0.910156
vt 0.627734 0.710156
s 0
usemtl Material.001
f 9/25/7 12/26/7 13/27/7 14/28/7
f 11/29/8 14/30/8 13/31/8 16/32/8
f 16/33/9 13/34/9 12/35/9 15/36/9
f 15/37/10 10/38/10 11/39/10 16/40/10
f 10/41/11 9/42/11 14/43/11 11/44/11
f 15/45/12 12/46/12 9/47/12 10/48/12
