# Blender 3.6.0
# www.blender.org
mtllib superlab.mtl
o Cube.004
v 1.395550 1.782743 -1.994656
v 1.596827 1.780319 -1.994656
v 1.395550 1.782743 -1.801198
v 1.596827 1.780319 -1.801198
v 1.374690 0.050739 -1.994656
v 1.575967 0.048315 -1.994656
v 1.374690 0.050739 -1.801198
v 1.575967 0.048315 -1.801198
v 1.395550 1.782743 1.812597
v 1.596827 1.780319 1.812597
v 1.395550 1.782743 2.006055
v 1.596827 1.780319 2.006055
v 1.374690 0.050739 1.812597
v 1.575967 0.048314 1.812597
v 1.374690 0.050739 2.006055
v 1.575967 0.048314 2.006055
v 1.386507 1.782743 -0.999887
v 1.587784 1.780319 -0.999887
v 1.386507 1.782743 -0.806429
v 1.587784 1.780319 -0.806429
v 1.365647 0.050739 -0.999887
v 1.566924 0.048314 -0.999887
v 1.365647 0.050739 -0.806429
v 1.566924 0.048314 -0.806429
v 1.386507 1.782743 0.808784
v 1.587784 1.780319 0.808784
v 1.386507 1.782743 1.002243
v 1.587784 1.780319 1.002243
v 1.365647 0.050739 0.808784
v 1.566924 0.048314 0.808784
v 1.365647 0.050739 1.002243
v 1.566924 0.048314 1.002243
v 1.395550 1.782743 -0.104595
v 1.596827 1.780319 -0.104595
v 1.395550 1.782743 0.088863
v 1.596827 1.780319 0.088863
v 1.374690 0.050739 -0.104595
v 1.575967 0.048314 -0.104595
v 1.374690 0.050739 0.088863
v 1.575967 0.048314 0.088863
vn 0.0120 0.9999 -0.0000
vn -0.0000 -0.0000 1.0000
vn -0.0120 -0.9999 -0.0000
vn -0.0000 -0.0000 -1.0000
vn -0.9999 0.0120 -0.0000
vn 0.9999 -0.0120 -0.0000
vt 0.172084 0.875948
vt 0.203039 0.875948
vt 0.203039 0.906902
vt 0.172084 0.906902
vt 0.203039 0.937857
vt 0.172084 0.937857
vt 0.203039 0.968811
vt 0.172084 0.968811
vt 0.203039 0.999766
vt 0.172084 0.999766
vt 0.141130 0.937857
vt 0.141130 0.968811
vt 0.233993 0.937857
vt 0.233993 0.968811
s 0
usemtl Textures
f 1/1/1 3/4/1 4/3/1 2/2/1
f 3/4/2 7/6/2 8/5/2 4/3/2
f 7/6/3 5/8/3 6/7/3 8/5/3
f 5/8/4 1/10/4 2/9/4 6/7/4
f 3/11/5 1/12/5 5/8/5 7/6/5
f 8/5/6 6/7/6 2/14/6 4/13/6
f 9/1/1 11/4/1 12/3/1 10/2/1
f 11/4/2 15/6/2 16/5/2 12/3/2
f 15/6/3 13/8/3 14/7/3 16/5/3
f 13/8/4 9/10/4 10/9/4 14/7/4
f 11/11/5 9/12/5 13/8/5 15/6/5
f 16/5/6 14/7/6 10/14/6 12/13/6
f 17/1/1 19/4/1 20/3/1 18/2/1
f 19/4/2 23/6/2 24/5/2 20/3/2
f 23/6/3 21/8/3 22/7/3 24/5/3
f 21/8/4 17/10/4 18/9/4 22/7/4
f 19/11/5 17/12/5 21/8/5 23/6/5
f 24/5/6 22/7/6 18/14/6 20/13/6
f 25/1/1 27/4/1 28/3/1 26/2/1
f 27/4/2 31/6/2 32/5/2 28/3/2
f 31/6/3 29/8/3 30/7/3 32/5/3
f 29/8/4 25/10/4 26/9/4 30/7/4
f 27/11/5 25/12/5 29/8/5 31/6/5
f 32/5/6 30/7/6 26/14/6 28/13/6
f 33/1/1 35/4/1 36/3/1 34/2/1
f 35/4/2 39/6/2 40/5/2 36/3/2
f 39/6/3 37/8/3 38/7/3 40/5/3
f 37/8/4 33/10/4 34/9/4 38/7/4
f 35/11/5 33/12/5 37/8/5 39/6/5
f 40/5/6 38/7/6 34/14/6 36/13/6
o Cube.011
v -0.354193 0.230334 0.944945
v -0.354193 0.065097 0.944945
v -0.354193 0.230334 0.482043
v -0.354193 0.065097 0.482043
v 0.334186 0.230334 0.944945
v 0.334186 0.065097 0.944945
v 0.334186 0.230334 0.482043
v 0.334186 0.065097 0.482043
v 0.097189 0.221677 0.483449
v 0.097189 0.536100 0.483449
v 0.204943 0.221677 0.510008
v 0.204943 0.536100 0.510008
v 0.288011 0.221677 0.583600
v 0.288011 0.536100 0.583600
v 0.327365 0.221677 0.687367
v 0.327365 0.536100 0.687367
v 0.313988 0.221677 0.797536
v 0.313988 0.536100 0.797536
v 0.250945 0.221677 0.888870
v 0.250945 0.536100 0.888870
v 0.152678 0.221677 0.940444
v 0.152678 0.536100 0.940444
v 0.041700 0.221677 0.940444
v 0.041700 0.536100 0.940444
v -0.056567 0.221677 0.888870
v -0.056567 0.536100 0.888870
v -0.119610 0.221677 0.797536
v -0.119610 0.536100 0.797536
v -0.132987 0.221677 0.687367
v -0.132987 0.536100 0.687367
v -0.093633 0.221677 0.583600
v -0.093633 0.536100 0.583600
v -0.010565 0.221677 0.510008
v -0.010565 0.536100 0.510008
vn -0.0000 -0.0000 -1.0000
vn 1.0000 -0.0000 -0.0000
vn -0.0000 -0.0000 1.0000
vn -0.8230 -0.0000 -0.5681
vn -1.0000 -0.0000 -0.0000
vn -0.0000 1.0000 -0.0000
vn 0.8230 -0.0000 -0.5681
vn -0.0000 -1.0000 -0.0000
vn 0.6631 -0.0000 0.7485
vn -0.6631 -0.0000 0.7485
vn -0.2393 -0.0000 0.9709
vn -0.9927 -0.0000 -0.1205
vn -0.4647 -0.0000 -0.8855
vn 0.4647 -0.0000 -0.8855
vn 0.9927 -0.0000 -0.1205
vn 0.2393 -0.0000 0.9709
vn 0.9350 -0.0000 0.3546
vn -0.9350 -0.0000 0.3546
vt 0.375000 0.500000
vt 0.375000 0.250000
vt 0.625000 0.250000
vt 0.625000 0.500000
vt 0.375000 0.750000
vt 0.625000 0.750000
vt 0.130246 0.120040
vt 0.130246 0.066933
vt 0.247761 0.066933
vt 0.247761 0.120040
vt 0.326194 0.878551
vt 0.335003 0.878551
vt 0.335003 0.997949
vt 0.326194 0.997949
vt 0.000984 0.062014
vt 0.250347 0.062348
vt 0.250494 0.000339
vt 0.000835 0.000312
vt 0.127025 0.123676
vt 0.127025 0.064440
vt 0.248959 0.064440
vt 0.248959 0.123676
vt 0.290958 0.878551
vt 0.299767 0.878551
vt 0.299767 0.997949
vt 0.290958 0.997949
vt 0.875000 0.500000
vt 0.875000 0.750000
vt 0.264530 0.878551
vt 0.273339 0.878551
vt 0.273339 0.997949
vt 0.264530 0.997949
vt 0.352622 0.878551
vt 0.361431 0.878551
vt 0.361431 0.997949
vt 0.352622 0.997949
vt 0.370240 0.878551
vt 0.370240 0.997949
vt 0.343813 0.878551
vt 0.343813 0.997949
vt 0.317385 0.878551
vt 0.317385 0.997949
vt 0.308576 0.878551
vt 0.308576 0.997949
vt 0.267821 0.923097
vt 0.265172 0.944913
vt 0.356329 0.944913
vt 0.353680 0.923097
vt 0.282148 0.878551
vt 0.282148 0.997949
vt 0.272964 0.965460
vt 0.289413 0.980033
vt 0.332087 0.980033
vt 0.348536 0.965460
vt 0.334813 0.978897
vt 0.312500 0.984396
vt 0.290187 0.978897
vt 0.280304 0.905012
vt 0.341196 0.905012
vt 0.272986 0.963658
vt 0.352014 0.963658
vt 0.280661 0.900445
vt 0.301010 0.889765
vt 0.344339 0.900445
vt 0.323990 0.889765
vt 0.255721 0.878551
vt 0.255721 0.997949
vt 0.310750 0.985292
vt 0.360163 0.942171
vt 0.264837 0.942171
vt 0.357393 0.919357
vt 0.267607 0.919357
vt 0.321738 0.894799
vt 0.299762 0.894799
s 0
usemtl Textures
f 47/15/7 48/18/7 44/17/7 43/16/7
f 45/19/8 46/20/8 48/18/8 47/15/8
f 41/21/9 42/24/9 46/23/9 45/22/9
f 59/25/10 60/28/10 58/27/10 57/26/10
f 43/29/11 44/32/11 42/31/11 41/30/11
f 41/33/12 45/36/12 47/35/12 43/34/12
f 67/37/13 68/40/13 66/39/13 65/38/13
f 46/20/14 42/42/14 44/41/14 48/18/14
f 73/43/15 74/46/15 72/45/15 71/44/15
f 53/47/16 54/50/16 52/49/16 51/48/16
f 51/48/17 52/49/17 50/52/17 49/51/17
f 57/26/18 58/27/18 56/54/18 55/53/18
f 61/55/19 62/56/19 60/28/19 59/25/19
f 63/57/7 64/58/7 62/56/7 61/55/7
f 67/59/12 57/62/12 55/61/12 69/60/12
f 65/38/20 66/39/20 64/58/20 63/57/20
f 69/63/21 70/64/21 68/40/21 67/37/21
f 71/65/12 53/68/12 51/67/12 73/66/12
f 52/69/14 74/71/14 50/70/14
f 65/72/12 59/73/12 57/62/12 67/59/12
f 69/60/12 55/61/12 53/68/12 71/65/12
f 74/71/14 52/69/14 54/75/14 72/74/14
f 66/76/14 60/78/14 64/77/14
f 64/77/14 60/78/14 62/79/14
f 49/80/22 50/81/22 74/46/22 73/43/22
f 71/44/23 72/45/23 70/64/23 69/63/23
f 73/66/12 51/67/12 49/82/12
f 56/83/14 70/84/14 72/74/14 54/75/14
f 58/85/14 68/86/14 70/84/14 56/83/14
f 60/78/14 66/76/14 68/86/14 58/85/14
f 59/73/12 63/88/12 61/87/12
f 63/88/12 59/73/12 65/72/12
f 55/53/24 56/54/24 54/50/24 53/47/24
o Cube.013
v 1.503356 0.850465 -0.285004
v 1.396742 0.045345 -0.285004
v 1.447209 0.857900 -0.283693
v 1.340595 0.052780 -0.283693
v 1.495350 0.851526 -0.633721
v 1.388735 0.046406 -0.633721
v 1.439203 0.858961 -0.632409
v 1.332589 0.053841 -0.632409
vn 0.0230 -0.0030 0.9997
vn -0.9911 0.1312 0.0232
vn -0.0230 0.0030 -0.9997
vn 0.9911 -0.1312 -0.0232
vn 0.1313 0.9913 -0.0000
vn -0.1313 -0.9913 -0.0000
vt 0.778231 -0.549890
vt 1.028231 -0.549890
vt 1.028231 -0.299890
vt 0.778231 -0.299890
vt 0.812755 0.119960
vt 0.812678 0.000035
vt 1.000005 0.000035
vt 0.999943 0.120081
vt 0.778231 -0.049890
vt 1.028231 -0.049890
vt 1.028231 0.200110
vt 0.778231 0.200110
vt 1.028231 0.450110
vt 0.778231 0.450110
vt 0.528231 -0.049890
vt 0.528231 0.200110
vt 1.278231 -0.049890
vt 1.278231 0.200110
s 0
usemtl Textures
f 75/89/25 77/92/25 78/91/25 76/90/25
f 77/93/26 81/96/26 82/95/26 78/94/26
f 81/97/27 79/100/27 80/99/27 82/98/27
f 79/100/28 75/102/28 76/101/28 80/99/28
f 77/103/29 75/104/29 79/100/29 81/97/29
f 82/98/30 80/99/30 76/106/30 78/105/30
o Cube.014
v -0.592378 0.882037 -1.990067
v -0.592378 0.333685 -1.990067
v 0.221949 0.882037 -1.994681
v 0.221949 0.333685 -1.994681
v -0.592080 0.882037 -1.937549
v -0.592080 0.333685 -1.937549
v 0.222247 0.882037 -1.942163
v 0.222247 0.333685 -1.942163
vn -0.0057 -0.0000 -1.0000
vn 1.0000 -0.0000 -0.0057
vn 0.0057 -0.0000 1.0000
vn -1.0000 -0.0000 0.0057
vn -0.0000 1.0000 -0.0000
vn -0.0000 -1.0000 -0.0000
vt 0.251935 0.710968
vt 0.278115 0.710968
vt 0.278115 0.737148
vt 0.251935 0.737148
vt 0.292867 0.997342
vt 0.292011 0.879428
vt 0.335817 0.879110
vt 0.336672 0.997024
vt 0.253882 0.892778
vt 0.371872 0.892778
vt 0.371872 0.987205
vt 0.253882 0.987205
vt 0.262000 0.999267
vt 0.262000 0.878565
vt 0.362937 0.878565
vt 0.362937 0.999267
vt 0.253774 0.921300
vt 0.372355 0.921300
vt 0.372355 0.960635
vt 0.253774 0.960635
vt 0.278115 0.763327
vt 0.304295 0.763327
vt 0.304295 0.789507
vt 0.278115 0.789507
s 0
usemtl Textures
f 83/107/31 85/110/31 86/109/31 84/108/31
f 85/111/32 89/114/32 90/113/32 86/112/32
f 89/115/33 87/118/33 88/117/33 90/116/33
f 87/119/34 83/122/34 84/121/34 88/120/34
f 85/123/35 83/126/35 87/125/35 89/124/35
f 90/127/36 88/130/36 84/129/36 86/128/36
o Cube.016
v -0.660940 0.361013 1.681267
v -0.660940 0.062186 1.681267
v 1.639059 0.361013 1.677815
v 1.639059 0.062186 1.677815
v -0.660471 0.361013 1.993757
v -0.660471 0.062186 1.993757
v 1.639528 0.361013 1.990305
v 1.639528 0.062186 1.990305
v -1.076154 0.361013 -1.963156
v -1.076154 0.062186 -1.963156
v 1.892932 0.361013 -1.967612
v 1.892932 0.062186 -1.967612
v -1.075685 0.361013 -1.650666
v -1.075685 0.062186 -1.650666
v 1.893401 0.361013 -1.655122
v 1.893401 0.062186 -1.655122
v -0.359173 0.361013 -0.862826
v -0.359173 0.062186 -0.862826
v -0.357150 0.361013 0.484454
v -0.357150 0.062186 0.484454
v -0.674858 0.361013 -0.862352
v -0.674858 0.062186 -0.862352
v -0.672836 0.361013 0.484928
v -0.672836 0.062186 0.484928
vn -0.0015 -0.0000 -1.0000
vn 1.0000 -0.0000 -0.0015
vn 0.0015 -0.0000 1.0000
vn -1.0000 -0.0000 0.0015
vn -0.0000 1.0000 -0.0000
vn -0.0000 -1.0000 -0.0000
vt 0.258992 0.915913
vt 0.363140 0.915913
vt 0.363140 0.956693
vt 0.258992 0.956693
vt 0.330715 0.875638
vt 0.371495 0.875638
vt 0.371495 0.916419
vt 0.330715 0.916419
vt 0.371495 0.957199
vt 0.330715 0.957199
vt 0.371495 0.997980
vt 0.330715 0.997980
vt 0.288940 0.879528
vt 0.345381 0.879528
vt 0.345381 0.997996
vt 0.288940 0.997996
vt 0.412276 0.916419
vt 0.412276 0.957199
vt 0.330715 0.834858
vt 0.371495 0.834858
vt 0.374007 0.911446
vt 0.374955 0.961723
vt 0.251510 0.963033
vt 0.250572 0.913244
vt 0.327785 0.949387
vt 0.368566 0.949387
vt 0.368566 0.990167
vt 0.327785 0.990167
vt 0.289935 0.916419
vt 0.289935 0.957199
vt 0.325832 0.889310
vt 0.366613 0.889310
vt 0.366613 0.930091
vt 0.325832 0.930091
vt 0.257473 0.881027
vt 0.298253 0.881027
vt 0.298253 0.921808
vt 0.257473 0.921808
s 0
usemtl Textures
f 91/131/37 93/134/37 94/133/37 92/132/37
f 93/135/38 97/138/38 98/137/38 94/136/38
f 97/138/39 95/140/39 96/139/39 98/137/39
f 95/140/40 91/142/40 92/141/40 96/139/40
f 93/143/41 91/146/41 95/145/41 97/144/41
f 98/137/42 96/139/42 92/148/42 94/147/42
f 99/149/37 101/135/37 102/136/37 100/150/37
f 101/135/38 105/138/38 106/137/38 102/136/38
f 105/151/39 103/154/39 104/153/39 106/152/39
f 103/155/40 99/158/40 100/157/40 104/156/40
f 101/159/41 99/160/41 103/140/41 105/138/41
f 106/137/42 104/139/42 100/148/42 102/147/42
f 107/149/38 109/135/38 110/136/38 108/150/38
f 109/161/39 113/164/39 114/163/39 110/162/39
f 113/138/40 111/140/40 112/139/40 114/137/40
f 111/165/37 107/168/37 108/167/37 112/166/37
f 109/143/41 107/146/41 111/145/41 113/144/41
f 114/137/42 112/139/42 108/148/42 110/147/42
o Cube.020
v -1.142226 0.381811 1.831214
v -1.142226 0.381811 2.079304
v -0.675751 0.379168 1.831214
v -0.675751 0.379168 2.079304
v -1.141929 0.434329 1.831214
v -1.141929 0.434329 2.079304
v -0.675454 0.431686 1.831214
v -0.675454 0.431686 2.079304
v -1.142226 0.217438 1.784668
v -1.142226 0.217438 2.032758
v -0.675751 0.214795 1.784668
v -0.675751 0.214795 2.032758
v -1.141929 0.269955 1.784668
v -1.141929 0.269955 2.032758
v -0.675454 0.267312 1.784668
v -0.675454 0.267312 2.032758
v -1.142226 0.058424 1.757881
v -1.142226 0.058424 2.005971
v -0.675751 0.055781 1.757881
v -0.675751 0.055781 2.005971
v -1.141929 0.110942 1.757881
v -1.141929 0.110942 2.005971
v -0.675454 0.108298 1.757881
v -0.675454 0.108298 2.005971
vn -0.0057 -1.0000 -0.0000
vn 1.0000 -0.0057 -0.0000
vn 0.0057 1.0000 -0.0000
vn -1.0000 0.0057 -0.0000
vn -0.0000 -0.0000 -1.0000
vn -0.0000 -0.0000 1.0000
vt 0.375000 0.000000
vt 0.625000 0.000000
vt 0.625000 0.250000
vt 0.375000 0.250000
vt 0.625000 0.500000
vt 0.375000 0.500000
vt 0.250025 0.124992
vt 0.250004 0.000003
vt 0.499989 0.000009
vt 0.500000 0.125002
vt 0.500012 0.124987
vt 0.500226 0.000018
vt 0.535143 0.000018
vt 0.535150 0.124991
vt 0.499990 0.125013
vt 0.499992 0.160151
vt 0.250013 0.160155
vt 0.250017 0.125012
vt 0.875000 0.500000
vt 0.875000 0.750000
vt 0.625000 0.750000
s 0
usemtl Textures
f 115/169/43 117/172/43 118/171/43 116/170/43
f 117/172/44 121/174/44 122/173/44 118/171/44
f 121/175/45 119/178/45 120/177/45 122/176/45
f 119/179/46 115/182/46 116/181/46 120/180/46
f 117/183/47 115/186/47 119/185/47 121/184/47
f 122/173/48 120/189/48 116/188/48 118/187/48
f 123/169/43 125/172/43 126/171/43 124/170/43
f 125/172/44 129/174/44 130/173/44 126/171/44
f 129/175/45 127/178/45 128/177/45 130/176/45
f 127/179/46 123/182/46 124/181/46 128/180/46
f 125/183/47 123/186/47 127/185/47 129/184/47
f 130/173/48 128/189/48 124/188/48 126/187/48
f 131/169/43 133/172/43 134/171/43 132/170/43
f 133/172/44 137/174/44 138/173/44 134/171/44
f 137/175/45 135/178/45 136/177/45 138/176/45
f 135/179/46 131/182/46 132/181/46 136/180/46
f 133/183/47 131/186/47 135/185/47 137/184/47
f 138/173/48 136/189/48 132/188/48 134/187/48
o Cone
v -0.007289 0.725239 -0.211987
v 0.155587 0.725239 -0.171841
v 0.281151 0.725239 -0.060602
v 0.340636 0.725239 0.096249
v 0.320416 0.725239 0.262777
v 0.225123 0.725239 0.400833
v 0.076586 0.725239 0.478791
v -0.091165 0.725239 0.478791
v -0.239701 0.725239 0.400833
v -0.334994 0.725239 0.262777
v -0.355215 0.725239 0.096249
v -0.295729 0.725239 -0.060602
v -0.170166 0.725239 -0.171841
v -0.007289 0.837074 0.138494
v -0.006074 0.063115 -0.214337
v -0.006074 0.724580 -0.214337
v 0.155637 0.063115 -0.174479
v 0.155637 0.724580 -0.174479
v 0.280301 0.063115 -0.064036
v 0.280301 0.724580 -0.064036
v 0.339361 0.063115 0.091691
v 0.339361 0.724580 0.091691
v 0.319285 0.063115 0.257028
v 0.319285 0.724580 0.257028
v 0.224674 0.063115 0.394096
v 0.224674 0.724580 0.394096
v 0.077201 0.063115 0.471496
v 0.077201 0.724580 0.471496
v -0.089350 0.063115 0.471496
v -0.089350 0.724580 0.471496
v -0.236823 0.063115 0.394096
v -0.236823 0.724580 0.394096
v -0.331434 0.063115 0.257028
v -0.331434 0.724580 0.257028
v -0.351510 0.063115 0.091691
v -0.351510 0.724580 0.091691
v -0.292450 0.063115 -0.064036
v -0.292450 0.724580 -0.064036
v -0.167785 0.063115 -0.174479
v -0.167785 0.724580 -0.174479
vn 0.0747 0.9500 -0.3031
vn 0.2070 0.9500 -0.2337
vn 0.2919 0.9500 -0.1107
vn 0.3099 0.9500 0.0376
vn 0.2569 0.9500 0.1774
vn 0.1451 0.9500 0.2764
vn -0.0000 0.9500 0.3122
vn -0.1451 0.9500 0.2764
vn -0.2569 0.9500 0.1774
vn -0.3099 0.9500 0.0376
vn -0.2919 0.9500 -0.1107
vn -0.2070 0.9500 -0.2337
vn -0.0747 0.9500 -0.3031
vn -0.9350 -0.0000 -0.3546
vn 0.2393 -0.0000 -0.9709
vn -0.2393 -0.0000 -0.9709
vn 0.6631 -0.0000 -0.7485
vn 0.9350 -0.0000 -0.3546
vn 0.9927 -0.0000 0.1205
vn 0.8230 -0.0000 0.5681
vn 0.4647 -0.0000 0.8855
vn -0.0000 -0.0000 1.0000
vn -0.4647 -0.0000 0.8855
vn -0.8230 -0.0000 0.5681
vn -0.9927 -0.0000 0.1205
vn -0.6631 -0.0000 -0.7485
vt 0.304257 0.974197
vt 0.304257 0.928712
vt 0.325395 0.968987
vt 0.341691 0.954550
vt 0.349411 0.934194
vt 0.346786 0.912582
vt 0.334419 0.894665
vt 0.315142 0.884548
vt 0.293372 0.884548
vt 0.274095 0.894665
vt 0.261727 0.912582
vt 0.259103 0.934194
vt 0.266823 0.954550
vt 0.283119 0.968987
vt 0.273058 0.997293
vt 0.273058 0.878467
vt 0.282017 0.878467
vt 0.282017 0.997293
vt 0.362645 0.997293
vt 0.362645 0.878467
vt 0.371603 0.878467
vt 0.371603 0.997293
vt 0.255141 0.997293
vt 0.255141 0.878467
vt 0.264099 0.878467
vt 0.264099 0.997293
vt 0.353686 0.997293
vt 0.353686 0.878467
vt 0.344727 0.997293
vt 0.344727 0.878467
vt 0.335769 0.997293
vt 0.335769 0.878467
vt 0.326810 0.997293
vt 0.326810 0.878467
vt 0.317851 0.997293
vt 0.317851 0.878467
vt 0.308893 0.997293
vt 0.308893 0.878467
vt 0.299934 0.997293
vt 0.299934 0.878467
vt 0.290975 0.997293
vt 0.290975 0.878467
s 0
usemtl Textures
f 139/190/49 152/191/49 140/192/49
f 140/192/50 152/191/50 141/193/50
f 141/193/51 152/191/51 142/194/51
f 142/194/52 152/191/52 143/195/52
f 143/195/53 152/191/53 144/196/53
f 144/196/54 152/191/54 145/197/54
f 145/197/55 152/191/55 146/198/55
f 146/198/56 152/191/56 147/199/56
f 147/199/57 152/191/57 148/200/57
f 148/200/58 152/191/58 149/201/58
f 149/201/59 152/191/59 150/202/59
f 150/202/60 152/191/60 151/203/60
f 151/203/61 152/191/61 139/190/61
f 176/204/62 175/205/62 173/206/62 174/207/62
f 156/208/63 155/209/63 153/210/63 154/211/63
f 154/212/64 153/213/64 177/214/64 178/215/64
f 158/216/65 157/217/65 155/209/65 156/208/65
f 160/218/66 159/219/66 157/217/66 158/216/66
f 162/220/67 161/221/67 159/219/67 160/218/67
f 164/222/68 163/223/68 161/221/68 162/220/68
f 166/224/69 165/225/69 163/223/69 164/222/69
f 168/226/70 167/227/70 165/225/70 166/224/70
f 170/228/71 169/229/71 167/227/71 168/226/71
f 172/230/72 171/231/72 169/229/72 170/228/72
f 174/207/73 173/206/73 171/231/73 172/230/73
f 178/215/74 177/214/74 175/205/74 176/204/74
o Cylinder.001
v -0.072892 0.062526 -0.892644
v -0.072892 0.598061 -0.892644
v 0.061800 0.062526 -0.859445
v 0.061800 0.598061 -0.859445
v 0.165636 0.062526 -0.767455
v 0.165636 0.598061 -0.767455
v 0.214828 0.062526 -0.637746
v 0.214828 0.598061 -0.637746
v 0.198107 0.062526 -0.500035
v 0.198107 0.598061 -0.500035
v 0.119303 0.062526 -0.385868
v 0.119303 0.598061 -0.385868
v -0.003530 0.062526 -0.321400
v -0.003530 0.598061 -0.321400
v -0.142253 0.062526 -0.321400
v -0.142253 0.598061 -0.321400
v -0.265086 0.062526 -0.385868
v -0.265086 0.598061 -0.385868
v -0.343890 0.062526 -0.500035
v -0.343890 0.598061 -0.500035
v -0.360611 0.062526 -0.637746
v -0.360611 0.598061 -0.637746
v -0.311419 0.062526 -0.767455
v -0.311419 0.598061 -0.767455
v -0.207584 0.062526 -0.859445
v -0.207584 0.598061 -0.859445
vn -0.0000 1.0000 -0.0000
vn -0.2393 -0.0000 -0.9709
vn -0.0000 -1.0000 -0.0000
vn 0.6631 -0.0000 -0.7485
vn 0.9350 -0.0000 -0.3546
vn 0.9927 -0.0000 0.1205
vn 0.8230 -0.0000 0.5681
vn 0.4647 -0.0000 0.8855
vn -0.0000 -0.0000 1.0000
vn -0.4647 -0.0000 0.8855
vn -0.8230 -0.0000 0.5681
vn -0.9927 -0.0000 0.1205
vn -0.9350 -0.0000 -0.3546
vn -0.6631 -0.0000 -0.7485
vn 0.2393 -0.0000 -0.9709
vt 0.356328 0.966873
vt 0.338964 0.982256
vt 0.364554 0.945183
vt 0.316441 0.987807
vt 0.293918 0.982256
vt 0.276554 0.966873
vt 0.268329 0.945183
vt 0.271125 0.922155
vt 0.284302 0.903064
vt 0.304843 0.892284
vt 0.328040 0.892284
vt 0.348580 0.903064
vt 0.361758 0.922155
vt 0.256249 0.882030
vt 0.265049 0.882030
vt 0.265049 0.993963
vt 0.256249 0.993963
vt 0.337715 0.974438
vt 0.345549 0.909913
vt 0.282439 0.925468
vt 0.286864 0.961904
vt 0.353050 0.882030
vt 0.361850 0.882030
vt 0.361850 0.993963
vt 0.353050 0.993963
vt 0.344250 0.882030
vt 0.344250 0.993963
vt 0.335450 0.882030
vt 0.335450 0.993963
vt 0.326650 0.882030
vt 0.326650 0.993963
vt 0.317849 0.882030
vt 0.317849 0.993963
vt 0.309049 0.882030
vt 0.309049 0.993963
vt 0.300249 0.882030
vt 0.300249 0.993963
vt 0.291449 0.882030
vt 0.291449 0.993963
vt 0.282649 0.882030
vt 0.282649 0.993963
vt 0.273849 0.882030
vt 0.273849 0.993963
vt 0.301011 0.974438
vt 0.319363 0.978961
vt 0.351862 0.961904
vt 0.358565 0.944232
vt 0.356287 0.925468
vt 0.328813 0.901129
vt 0.309912 0.901129
vt 0.293176 0.909913
vt 0.280161 0.944232
vt 0.370650 0.882030
vt 0.370650 0.993963
s 0
usemtl Textures
f 184/232/75 182/233/75 186/234/75
f 182/233/75 180/235/75 186/234/75
f 180/235/75 204/236/75 202/237/75
f 202/237/75 200/238/75 198/239/75
f 198/239/75 196/240/75 194/241/75
f 194/241/75 192/242/75 190/243/75
f 190/243/75 188/244/75 186/234/75
f 180/235/75 202/237/75 198/239/75
f 198/239/75 194/241/75 190/243/75
f 179/245/76 203/246/76 204/247/76 180/248/76
f 181/249/77 189/250/77 197/251/77 201/252/77
f 183/253/78 181/254/78 182/255/78 184/256/78
f 185/257/79 183/253/79 184/256/79 186/258/79
f 187/259/80 185/257/80 186/258/80 188/260/80
f 189/261/81 187/259/81 188/260/81 190/262/81
f 191/263/82 189/261/82 190/262/82 192/264/82
f 193/265/83 191/263/83 192/264/83 194/266/83
f 195/267/84 193/265/84 194/266/84 196/268/84
f 197/269/85 195/267/85 196/268/85 198/270/85
f 199/271/86 197/269/86 198/270/86 200/272/86
f 201/273/87 199/271/87 200/272/87 202/274/87
f 203/246/88 201/273/88 202/274/88 204/247/88
f 203/275/77 179/276/77 201/252/77
f 179/276/77 181/249/77 201/252/77
f 181/249/77 183/277/77 185/278/77
f 185/278/77 187/279/77 189/250/77
f 189/250/77 191/280/77 193/281/77
f 193/281/77 195/282/77 189/250/77
f 195/282/77 197/251/77 189/250/77
f 197/251/77 199/283/77 201/252/77
f 181/249/77 185/278/77 189/250/77
f 186/234/75 180/235/75 198/239/75 190/243/75
f 181/254/89 179/284/89 180/285/89 182/255/89
o Plane
v -1.425930 0.059086 2.016943
v 1.521943 0.059086 2.016943
v -1.425930 0.059086 -1.983057
v 1.521943 0.059086 -1.983057
vn -0.0000 1.0000 -0.0000
vt 0.375019 0.999988
vt 0.375011 0.500023
vt 0.999997 0.500022
vt 0.999992 0.999994
s 0
usemtl Material.002
f 205/286/90 206/287/90 208/288/90 207/289/90
o Plane.002
v -1.413425 0.062141 -1.989212
v -1.413425 1.869701 -1.989212
v 1.479075 0.062141 -1.989213
v 1.479075 1.869700 -1.989213
v 1.464008 0.062141 2.027388
v 1.464008 1.869700 2.027388
v 1.464008 0.062141 -2.053648
v 1.464008 1.869700 -2.053648
v -1.413425 0.062141 2.010787
v -1.413424 1.869700 2.010787
v 1.479075 0.062141 2.010787
v 1.479075 1.869700 2.010787
vn -0.0000 -0.0000 -1.0000
vn -1.0000 -0.0000 -0.0000
vt 0.127262 0.879339
vt 0.245854 0.879339
vt 0.245854 0.997930
vt 0.127262 0.997930
s 0
usemtl Textures
f 209/290/91 210/291/91 212/292/91 211/293/91
f 213/290/92 214/291/92 216/292/92 215/293/92
f 217/290/91 218/291/91 220/292/91 219/293/91
o Plane.001
v 0.752886 0.992487 2.001379
v 1.214333 0.992487 2.001379
v 0.752886 0.992487 -1.987246
v 1.214333 0.992487 -1.987246
vn -0.0000 1.0000 -0.0000
vt 0.332105 0.499948
vt 0.332061 0.375064
vt 1.000003 0.375007
vt 0.999982 0.499987
s 0
usemtl Textures
f 221/294/93 222/295/93 224/296/93 223/297/93
o Plane.003
v -0.689035 0.117748 -0.504384
v -0.689035 0.289074 -0.504384
v -0.689035 0.117748 -0.815092
v -0.689035 0.289074 -0.815092
vn -1.0000 -0.0000 -0.0000
vt 0.124938 0.063224
vt 0.124508 0.124935
vt -0.000017 0.124524
vt 0.000494 0.062401
s 0
usemtl Textures
f 225/298/94 226/299/94 228/300/94 227/301/94
o Cube
v 1.301494 0.064817 -1.236047
v 1.301494 0.736457 -1.236047
v 1.301494 0.064817 -1.638289
v 1.301494 0.736457 -1.638289
v 1.471230 0.064817 -1.236047
v 1.471230 0.736457 -1.236047
v 1.471230 0.064817 -1.638289
v 1.471230 0.736457 -1.638289
vn -1.0000 -0.0000 -0.0000
vn -0.0000 -0.0000 -1.0000
vn 1.0000 -0.0000 -0.0000
vn -0.0000 -0.0000 1.0000
vn -0.0000 -1.0000 -0.0000
vn -0.0000 1.0000 -0.0000
vt 0.813647 0.374179
vt 0.813290 0.122272
vt 0.999601 0.121512
vt 0.999671 0.373822
vt 0.822936 0.276061
vt 0.915345 0.276061
vt 0.915345 0.368470
vt 0.822936 0.368470
vt 0.375000 0.500000
vt 0.625000 0.500000
vt 0.625000 0.750000
vt 0.375000 0.750000
vt 0.932181 0.309135
vt 0.993600 0.309135
vt 0.993600 0.370553
vt 0.932181 0.370553
vt 0.125000 0.500000
vt 0.125000 0.750000
vt 0.922681 0.127118
vt 0.993191 0.127118
vt 0.993191 0.197628
vt 0.922681 0.197628
s 0
usemtl Textures
f 229/302/95 230/303/95 232/304/95 231/305/95
f 231/306/96 232/307/96 236/308/96 235/309/96
f 235/310/97 236/311/97 234/312/97 233/313/97
f 233/314/98 234/315/98 230/316/98 229/317/98
f 231/318/99 235/310/99 233/313/99 229/319/99
f 236/320/100 232/321/100 230/322/100 234/323/100
