# Blender 3.6.0
# www.blender.org
mtllib superlab.mtl
o Cube.004
v 1.398473 2.246151 -1.994656
v 1.599759 2.243727 -1.994656
v 1.398473 2.246151 -1.801198
v 1.599759 2.243727 -1.801198
v 1.371758 0.027980 -1.994656
v 1.573044 0.025555 -1.994656
v 1.371758 0.027980 -1.801198
v 1.573044 0.025555 -1.801198
v 1.398473 2.246151 1.812597
v 1.599759 2.243727 1.812597
v 1.398473 2.246151 2.006055
v 1.599759 2.243727 2.006055
v 1.371758 0.027979 1.812597
v 1.573044 0.025555 1.812597
v 1.371758 0.027979 2.006055
v 1.573044 0.025555 2.006055
v 1.389429 2.246121 -0.999887
v 1.590715 2.243696 -0.999887
v 1.389429 2.246121 -0.806429
v 1.590715 2.243696 -0.806429
v 1.362714 0.027949 -0.999887
v 1.564000 0.025525 -0.999887
v 1.362714 0.027949 -0.806429
v 1.564000 0.025525 -0.806429
v 1.389429 2.246121 0.808784
v 1.590715 2.243696 0.808784
v 1.389429 2.246121 1.002243
v 1.590715 2.243696 1.002243
v 1.362714 0.027949 0.808784
v 1.564000 0.025525 0.808784
v 1.362714 0.027949 1.002243
v 1.564000 0.025525 1.002243
v 1.398473 2.246151 -0.104595
v 1.599759 2.243727 -0.104595
v 1.398473 2.246151 0.088863
v 1.599759 2.243727 0.088863
v 1.371758 0.027979 -0.104595
v 1.573044 0.025555 -0.104595
v 1.371758 0.027979 0.088863
v 1.573044 0.025555 0.088863
vn 0.0120 0.9999 -0.0000
vn -0.0000 -0.0000 1.0000
vn -0.0120 -0.9999 -0.0000
vn -0.0000 -0.0000 -1.0000
vn -0.9999 0.0120 -0.0000
vn 0.9999 -0.0120 -0.0000
vt 0.000012 0.968184
vt 0.030967 0.968184
vt 0.030967 0.999139
vt 0.000012 0.999139
vt 0.012685 0.829392
vt 0.054995 0.829392
vt 0.054995 0.860347
vt 0.012685 0.860347
vt 0.054995 0.891302
vt 0.012685 0.891302
vt 0.054995 0.922256
vt 0.012685 0.922256
vt 0.000837 0.961060
vt 0.000837 0.930106
vt 0.119378 0.930106
vt 0.119378 0.961060
vt 0.097306 0.860347
vt 0.097306 0.891302
s 0
usemtl Textures
f 1/1/1 3/4/1 4/3/1 2/2/1
f 3/5/2 7/8/2 8/7/2 4/6/2
f 7/8/3 5/10/3 6/9/3 8/7/3
f 5/10/4 1/12/4 2/11/4 6/9/4
f 3/13/5 1/16/5 5/15/5 7/14/5
f 8/7/6 6/9/6 2/18/6 4/17/6
f 9/1/1 11/4/1 12/3/1 10/2/1
f 11/5/2 15/8/2 16/7/2 12/6/2
f 15/8/3 13/10/3 14/9/3 16/7/3
f 13/10/4 9/12/4 10/11/4 14/9/4
f 11/13/5 9/16/5 13/15/5 15/14/5
f 16/7/6 14/9/6 10/18/6 12/17/6
f 17/1/1 19/4/1 20/3/1 18/2/1
f 19/5/2 23/8/2 24/7/2 20/6/2
f 23/8/3 21/10/3 22/9/3 24/7/3
f 21/10/4 17/12/4 18/11/4 22/9/4
f 19/13/5 17/16/5 21/15/5 23/14/5
f 24/7/6 22/9/6 18/18/6 20/17/6
f 25/1/1 27/4/1 28/3/1 26/2/1
f 27/5/2 31/8/2 32/7/2 28/6/2
f 31/8/3 29/10/3 30/9/3 32/7/3
f 29/10/4 25/12/4 26/11/4 30/9/4
f 27/13/5 25/16/5 29/15/5 31/14/5
f 32/7/6 30/9/6 26/18/6 28/17/6
f 33/1/1 35/4/1 36/3/1 34/2/1
f 35/5/2 39/8/2 40/7/2 36/6/2
f 39/8/3 37/10/3 38/9/3 40/7/3
f 37/10/4 33/12/4 34/11/4 38/9/4
f 35/13/5 33/16/5 37/15/5 39/14/5
f 40/7/6 38/9/6 34/18/6 36/17/6
o Cube.013
v 1.456157 0.869261 -0.527227
v 1.353196 0.064141 -0.499556
v 1.402269 0.876697 -0.511386
v 1.299308 0.071577 -0.483715
v 1.342155 0.870492 -0.915618
v 1.239194 0.065372 -0.887947
v 1.288267 0.877927 -0.899777
v 1.185306 0.072807 -0.872106
vn 0.2816 -0.0030 0.9595
vn -0.9511 0.1312 0.2796
vn -0.2816 0.0030 -0.9595
vn 0.9511 -0.1312 -0.2796
vn 0.1268 0.9913 -0.0341
vn -0.1268 -0.9913 0.0341
vt 0.827498 0.016789
vt 0.991366 0.016789
vt 0.991366 0.106954
vt 0.827498 0.106954
vt 0.815874 0.118359
vt 0.815799 0.002416
vt 0.997660 0.002416
vt 0.997599 0.118476
vt 0.883299 0.011426
vt 0.935565 0.011426
vt 0.935565 0.063693
vt 0.883299 0.063693
vt 0.935565 0.115960
vt 0.883299 0.115960
vt 0.831032 0.011426
vt 0.831032 0.063693
vt 0.987832 0.011426
vt 0.987832 0.063693
s 0
usemtl Textures
f 41/19/7 43/22/7 44/21/7 42/20/7
f 43/23/8 47/26/8 48/25/8 44/24/8
f 47/27/9 45/30/9 46/29/9 48/28/9
f 45/30/10 41/32/10 42/31/10 46/29/10
f 43/33/11 41/34/11 45/30/11 47/27/11
f 48/28/12 46/29/12 42/36/12 44/35/12
o Cube.014
v -0.592378 0.882037 -1.990067
v -0.592378 0.333685 -1.990067
v 0.221949 0.882037 -1.994681
v 0.221949 0.333685 -1.994681
v -0.592080 0.882037 -1.937549
v -0.592080 0.333685 -1.937549
v 0.222247 0.882037 -1.942163
v 0.222247 0.333685 -1.942163
vn -0.0057 -0.0000 -1.0000
vn 1.0000 -0.0000 -0.0057
vn 0.0057 -0.0000 1.0000
vn -1.0000 -0.0000 0.0057
vn -0.0000 1.0000 -0.0000
vn -0.0000 -1.0000 -0.0000
vt 0.251935 0.710968
vt 0.278115 0.710968
vt 0.278115 0.737148
vt 0.251935 0.737148
vt 0.292867 0.997342
vt 0.292011 0.879428
vt 0.335817 0.879110
vt 0.336672 0.997024
vt 0.253882 0.892778
vt 0.371872 0.892778
vt 0.371872 0.987205
vt 0.253882 0.987205
vt 0.262000 0.999267
vt 0.262000 0.878565
vt 0.362937 0.878565
vt 0.362937 0.999267
vt 0.253774 0.921300
vt 0.372355 0.921300
vt 0.372355 0.960635
vt 0.253774 0.960635
vt 0.278115 0.763327
vt 0.304295 0.763327
vt 0.304295 0.789507
vt 0.278115 0.789507
s 0
usemtl Textures
f 49/37/13 51/40/13 52/39/13 50/38/13
f 51/41/14 55/44/14 56/43/14 52/42/14
f 55/45/15 53/48/15 54/47/15 56/46/15
f 53/49/16 49/52/16 50/51/16 54/50/16
f 51/53/17 49/56/17 53/55/17 55/54/17
f 56/57/18 54/60/18 50/59/18 52/58/18
o Cube.016
v -0.691960 0.378426 1.608890
v -0.691960 0.044773 1.608890
v 1.520152 0.378426 1.600268
v 1.520152 0.044773 1.600268
v -0.691636 0.378426 2.017443
v -0.691636 0.044773 2.017443
v 1.518036 0.378426 2.018740
v 1.518036 0.044773 2.018740
v -1.059449 0.378426 -1.595267
v -1.059449 0.044773 -1.595267
v 1.555774 0.378426 -1.586906
v 1.555774 0.044773 -1.586906
v -1.059066 0.378426 -2.040738
v -1.059066 0.044773 -2.040738
v 1.553272 0.378426 -2.041996
v 1.553272 0.044773 -2.041996
vn -0.0039 -0.0000 -1.0000
vn -1.0000 -0.0000 0.0008
vn -0.0000 1.0000 -0.0000
vn -0.0000 -1.0000 -0.0000
vn 0.0032 -0.0000 -1.0000
vn 1.0000 -0.0000 0.0009
vt 0.308573 0.761439
vt 0.237434 0.761300
vt 0.239290 0.989171
vt 0.310036 0.989254
vt 0.202326 0.773058
vt 0.304537 0.773058
vt 0.304537 0.874154
vt 0.202326 0.874154
vt 0.197742 0.759005
vt 0.270669 0.759981
vt 0.272622 0.988954
vt 0.198718 0.989443
vt 0.287395 0.812232
vt 0.249680 0.813013
vt 0.249680 0.849533
vt 0.287395 0.848752
s 0
usemtl Textures
f 57/61/19 59/64/19 60/63/19 58/62/19
f 61/65/20 57/68/20 58/67/20 62/66/20
f 59/69/21 57/72/21 61/71/21 63/70/21
f 64/73/22 62/76/22 58/75/22 60/74/22
f 65/61/23 67/64/23 68/63/23 66/62/23
f 69/65/24 65/68/24 66/67/24 70/66/24
f 67/69/22 65/72/22 69/71/22 71/70/22
f 72/73/21 70/76/21 66/75/21 68/74/21
o Cube.020
v 1.312775 0.910362 0.115437
v 1.312773 0.443019 0.115437
v 1.312774 0.910362 -0.111931
v 1.312773 0.443019 -0.111931
vn -1.0000 -0.0000 -0.0000
vt 0.617290 0.370140
vt 0.617290 0.176611
vt 0.523699 0.176611
vt 0.523699 0.370140
s 0
usemtl Textures
f 73/77/25 75/80/25 76/79/25 74/78/25
o Plane.002
v -1.413425 0.062610 -1.989212
v -1.413425 2.248260 -1.989212
v 1.479075 0.062610 -1.989213
v 1.479075 2.248260 -1.989213
v -1.413425 0.062610 -2.238278
v -1.413425 2.248260 -2.238278
v 1.479075 2.248260 1.992774
v 1.479075 0.062610 1.992774
v -1.408729 2.248260 1.992774
v -1.408729 0.062610 1.992774
v -1.408729 0.062610 2.214262
v -1.408729 2.248260 2.214262
v 1.479075 2.248260 2.213655
v 1.479075 2.248260 -2.226454
v 1.691775 2.248260 -2.226454
v 1.699956 2.248260 2.213655
vn -0.0000 -0.0000 -1.0000
vn 1.0000 -0.0000 -0.0000
vn -0.0000 -0.0000 1.0000
vn -0.0000 -1.0000 -0.0000
vt 0.118155 0.999848
vt 0.001114 0.999848
vt 0.001114 0.750575
vt 0.118155 0.750575
vt 0.151453 0.751903
vt 0.151453 0.998493
vt 0.110888 0.998493
vt 0.110888 0.751903
vt 0.119148 0.998175
vt 0.002724 0.998175
vt 0.002724 0.751995
vt 0.119148 0.751995
vt 0.001625 0.751208
vt 0.114677 0.751208
vt 0.114677 0.999381
vt 0.001625 0.999381
vt 0.114578 0.995971
vt 0.114578 0.753812
vt 0.151458 0.753812
vt 0.151458 0.995971
vt 0.377002 0.998055
vt 0.376987 0.501886
vt 0.998185 0.501757
vt 0.998403 0.998444
vt 0.112770 0.996781
vt 0.111298 0.753041
vt 0.150360 0.752993
vt 0.149977 0.996735
vt 0.150467 0.751797
vt 0.150516 0.998882
vt 0.113704 0.998880
vt 0.113756 0.751795
vt 0.193581 0.751722
vt 0.193710 0.998306
vt 0.153961 0.998172
vt 0.154189 0.751833
s 0
usemtl Textures
f 77/81/26 78/82/26 80/83/26 79/84/26
f 81/85/27 82/86/27 78/87/27 77/88/27
f 79/89/27 80/90/27 83/91/27 84/92/27
f 84/93/28 83/94/28 85/95/28 86/96/28
f 86/97/27 85/98/27 88/99/27 87/100/27
f 77/101/29 79/102/29 84/103/29 86/104/29
f 80/105/29 78/106/29 82/107/29 90/108/29
f 89/109/29 88/110/29 85/111/29 83/112/29
f 91/113/29 92/114/29 89/115/29 90/116/29
o Plane.001
v 0.707129 1.591262 2.058250
v 1.168576 1.591262 2.058250
v 0.707129 1.591262 -1.930375
v 1.168576 1.591262 -1.930375
vn -0.0000 1.0000 -0.0000
vt 0.375898 0.499948
vt 0.375854 0.375064
vt 1.000003 0.375007
vt 0.999982 0.499987
s 0
usemtl Textures
f 93/117/30 94/118/30 96/119/30 95/120/30
o Cube
v 1.143899 0.057352 -1.182446
v 1.143899 0.907518 -1.182446
v 1.143899 0.057352 -1.584688
v 1.143899 0.907518 -1.584688
v 1.517752 0.057352 -1.182446
v 1.517752 0.907518 -1.182446
v 1.517752 0.057352 -1.584688
v 1.517752 0.907518 -1.584688
vn -1.0000 -0.0000 -0.0000
vn -0.0000 -0.0000 -1.0000
vn 1.0000 -0.0000 -0.0000
vn -0.0000 -0.0000 1.0000
vn -0.0000 -1.0000 -0.0000
vn -0.0000 1.0000 -0.0000
vt 0.813647 0.374179
vt 0.813290 0.122272
vt 0.999601 0.121512
vt 0.999671 0.373822
vt 0.822936 0.276061
vt 0.915345 0.276061
vt 0.915345 0.368470
vt 0.822936 0.368470
vt 0.375000 0.500000
vt 0.625000 0.500000
vt 0.625000 0.750000
vt 0.375000 0.750000
vt 0.932181 0.309135
vt 0.993600 0.309135
vt 0.993600 0.370553
vt 0.932181 0.370553
vt 0.125000 0.500000
vt 0.125000 0.750000
vt 0.922681 0.127118
vt 0.993191 0.127118
vt 0.993191 0.197628
vt 0.922681 0.197628
s 0
usemtl Textures
f 97/121/31 98/122/31 100/123/31 99/124/31
f 99/125/32 100/126/32 104/127/32 103/128/32
f 103/129/33 104/130/33 102/131/33 101/132/33
f 101/133/34 102/134/34 98/135/34 97/136/34
f 99/137/35 103/129/35 101/132/35 97/138/35
f 104/139/36 100/140/36 98/141/36 102/142/36
o Cylinder.002
v -0.886612 0.740983 1.813540
v -0.765833 0.055094 1.762020
v -0.765833 1.071909 1.762020
v -0.749327 0.055094 1.792322
v -0.749327 1.071909 1.792322
v -0.748794 0.055094 1.826823
v -0.748794 1.071909 1.826823
v -0.764355 0.055094 1.857621
v -0.764355 1.071909 1.857621
v -0.792447 0.055094 1.877659
v -0.792447 1.071909 1.877659
v -0.826633 0.055094 1.882347
v -0.826633 1.071909 1.882347
v -0.859082 0.055094 1.870611
v -0.859082 1.071909 1.870611
v -0.882360 0.055094 1.845140
v -0.882360 1.071909 1.845140
v -0.891134 0.055094 1.811768
v -0.891134 1.071909 1.811768
v -0.883395 0.055094 1.778141
v -0.883395 1.071909 1.778141
v -0.860915 0.055094 1.751963
v -0.860915 1.071909 1.751963
v -0.828844 0.055094 1.739230
v -0.828844 1.071909 1.739230
v -0.794530 0.055094 1.742859
v -0.794530 1.071909 1.742859
vn 0.5553 -0.0000 -0.8317
vn 0.9999 -0.0000 -0.0155
vn 0.8925 -0.0000 0.4510
vn 0.5807 -0.0000 0.8141
vn 0.1359 -0.0000 0.9907
vn -0.3401 -0.0000 0.9404
vn -0.7382 -0.0000 0.6746
vn -0.9671 -0.0000 0.2543
vn -0.9745 -0.0000 -0.2243
vn -0.7587 -0.0000 -0.6515
vn -0.3690 -0.0000 -0.9294
vn 0.1052 -0.0000 -0.9945
vn 0.8782 -0.0000 -0.4783
vt 0.256249 0.882030
vt 0.265049 0.882030
vt 0.265049 0.993963
vt 0.256249 0.993963
vt 0.353050 0.882030
vt 0.361850 0.882030
vt 0.361850 0.993963
vt 0.353050 0.993963
vt 0.344250 0.882030
vt 0.344250 0.993963
vt 0.335450 0.882030
vt 0.335450 0.993963
vt 0.326650 0.882030
vt 0.326650 0.993963
vt 0.317849 0.882030
vt 0.317849 0.993963
vt 0.309049 0.882030
vt 0.309049 0.993963
vt 0.300249 0.882030
vt 0.300249 0.993963
vt 0.291449 0.882030
vt 0.291449 0.993963
vt 0.282649 0.882030
vt 0.282649 0.993963
vt 0.273849 0.882030
vt 0.273849 0.993963
vt 0.370650 0.882030
vt 0.370650 0.993963
s 0
usemtl Textures
f 106/143/37 130/144/37 131/145/37 107/146/37
f 110/147/38 108/148/38 109/149/38 111/150/38
f 112/151/39 110/147/39 111/150/39 113/152/39
f 114/153/40 112/151/40 113/152/40 115/154/40
f 116/155/41 114/153/41 115/154/41 117/156/41
f 118/157/42 116/155/42 117/156/42 119/158/42
f 120/159/43 118/157/43 119/158/43 121/160/43
f 122/161/44 120/159/44 121/160/44 123/162/44
f 124/163/45 122/161/45 123/162/45 125/164/45
f 126/165/46 124/163/46 125/164/46 127/166/46
f 128/167/47 126/165/47 127/166/47 129/168/47
f 130/144/48 128/167/48 129/168/48 131/145/48
f 108/148/49 106/169/49 107/170/49 109/149/49
o Cylinder.003
v 0.606053 1.199324 1.805935
v -1.417593 1.033133 1.735045
v 1.582416 1.033134 1.735044
v -1.417593 1.010421 1.776740
v 1.582416 1.010422 1.776739
v -1.417593 1.009688 1.824214
v 1.582416 1.009688 1.824213
v -1.417593 1.031101 1.866591
v 1.582416 1.031101 1.866590
v -1.417593 1.069754 1.894163
v 1.582416 1.069755 1.894162
v -1.417593 1.116793 1.900613
v 1.582416 1.116794 1.900613
v -1.417593 1.161443 1.884465
v 1.582416 1.161443 1.884464
v -1.417593 1.193473 1.849416
v 1.582416 1.193473 1.849416
v -1.417593 1.205546 1.803498
v 1.582416 1.205547 1.803497
v -1.417593 1.194897 1.757228
v 1.582416 1.194898 1.757227
v -1.417593 1.163965 1.721206
v 1.582416 1.163966 1.721206
v -1.417593 1.119836 1.703686
v 1.582416 1.119837 1.703686
v -1.417593 1.072620 1.708680
v 1.582416 1.072621 1.708680
vn -0.0000 -0.5553 -0.8317
vn -0.0000 -0.9999 -0.0155
vn -0.0000 -0.8925 0.4510
vn -0.0000 -0.5807 0.8141
vn -0.0000 -0.1359 0.9907
vn -0.0000 0.3401 0.9404
vn -0.0000 0.7382 0.6746
vn -0.0000 0.9671 0.2543
vn -0.0000 0.9745 -0.2243
vn -0.0000 0.7587 -0.6515
vn -0.0000 0.3690 -0.9294
vn -0.0000 -0.1052 -0.9945
vn -0.0000 -0.8782 -0.4783
vt 0.256249 0.882030
vt 0.265049 0.882030
vt 0.265049 0.993963
vt 0.256249 0.993963
vt 0.353050 0.882030
vt 0.361850 0.882030
vt 0.361850 0.993963
vt 0.353050 0.993963
vt 0.344250 0.882030
vt 0.344250 0.993963
vt 0.335450 0.882030
vt 0.335450 0.993963
vt 0.326650 0.882030
vt 0.326650 0.993963
vt 0.317849 0.882030
vt 0.317849 0.993963
vt 0.309049 0.882030
vt 0.309049 0.993963
vt 0.300249 0.882030
vt 0.300249 0.993963
vt 0.291449 0.882030
vt 0.291449 0.993963
vt 0.282649 0.882030
vt 0.282649 0.993963
vt 0.273849 0.882030
vt 0.273849 0.993963
vt 0.370650 0.882030
vt 0.370650 0.993963
s 0
usemtl Textures
f 133/171/50 157/172/50 158/173/50 134/174/50
f 137/175/51 135/176/51 136/177/51 138/178/51
f 139/179/52 137/175/52 138/178/52 140/180/52
f 141/181/53 139/179/53 140/180/53 142/182/53
f 143/183/54 141/181/54 142/182/54 144/184/54
f 145/185/55 143/183/55 144/184/55 146/186/55
f 147/187/56 145/185/56 146/186/56 148/188/56
f 149/189/57 147/187/57 148/188/57 150/190/57
f 151/191/58 149/189/58 150/190/58 152/192/58
f 153/193/59 151/191/59 152/192/59 154/194/59
f 155/195/60 153/193/60 154/194/60 156/196/60
f 157/172/61 155/195/61 156/196/61 158/173/61
f 135/176/62 133/197/62 134/198/62 136/177/62
o Plane.005
v -0.902482 0.529213 1.929371
v -0.902482 0.292254 1.929371
v -0.902482 0.529213 1.692411
v -0.902482 0.292254 1.692411
vn 1.0000 -0.0000 -0.0000
vt 0.703595 0.000805
vt 0.812057 0.000805
vt 0.812057 0.117150
vt 0.703595 0.117150
s 0
usemtl Textures
f 159/199/63 160/200/63 162/201/63 161/202/63
o Plane.006
v 1.480082 0.529213 -1.725808
v 1.480082 0.292254 -1.725808
v 1.480082 0.529213 -1.962768
v 1.480082 0.292254 -1.962768
vn 1.0000 -0.0000 -0.0000
vt 0.000000 0.000000
vt 1.000000 0.000000
vt 1.000000 1.000000
vt 0.000000 1.000000
s 0
f 163/203/64 164/204/64 166/205/64 165/206/64
o Plane.007
v 1.441808 0.784981 1.885224
v 1.441808 0.744644 1.885224
v 1.441808 0.784981 -0.878222
v 1.441808 0.744644 -0.878222
vn 1.0000 -0.0000 -0.0000
vt 0.131088 0.124029
vt 0.119075 0.124029
vt 0.119075 0.065141
vt 0.131088 0.065141
s 0
usemtl Textures
f 167/207/65 168/208/65 170/209/65 169/210/65
o Plane.008
v 1.399089 0.771861 -1.968452
v 1.399089 0.731524 -1.968452
v 0.212843 0.771861 -1.968452
v 0.212843 0.731524 -1.968452
vn -0.0000 -0.0000 -1.0000
vt 0.131088 0.124029
vt 0.119075 0.124029
vt 0.119075 0.065141
vt 0.131088 0.065141
s 0
usemtl Textures
f 171/211/66 172/212/66 174/213/66 173/214/66
o Plane.009
v 1.422917 1.074842 -1.078828
v 1.422917 1.034505 -1.078828
v 1.422917 1.074842 -1.724952
v 1.422917 1.034505 -1.724952
v 1.422917 0.785357 -0.998696
v 1.422917 0.746252 -0.999190
v 1.422917 0.785242 -1.078430
v 1.422917 0.746281 -1.078315
v 1.422917 0.870231 -1.723236
v 1.422917 0.829893 -1.723236
v 1.422917 0.870065 -1.801607
v 1.422917 0.829728 -1.801607
v 1.422917 0.746271 -1.078341
v 1.422917 0.746271 -1.118678
v 1.422917 1.034495 -1.078891
v 1.422917 1.034495 -1.119228
v 1.422917 0.829818 -1.682962
v 1.422917 0.829818 -1.723300
v 1.422917 1.034541 -1.683188
v 1.422917 1.034541 -1.724981
vn 1.0000 -0.0000 -0.0000
vt 0.131088 0.124029
vt 0.119075 0.124029
vt 0.119075 0.065141
vt 0.131088 0.065141
s 0
usemtl Textures
f 175/215/67 176/216/67 178/217/67 177/218/67
f 179/215/67 180/216/67 182/217/67 181/218/67
f 183/215/67 184/216/67 186/217/67 185/218/67
f 187/215/67 188/216/67 190/217/67 189/218/67
f 191/215/67 192/216/67 194/217/67 193/218/67
o Cube.002
v 1.116144 0.074573 1.582620
v 1.116144 0.410459 1.582620
v 1.116144 0.074573 0.801761
v 1.116144 0.410459 0.801761
v 1.529617 0.074573 1.582620
v 1.529617 0.410459 1.582620
v 1.529617 0.074573 0.801761
v 1.529617 0.410459 0.801761
vn -1.0000 -0.0000 -0.0000
vn -0.0000 -0.0000 -1.0000
vn 1.0000 -0.0000 -0.0000
vn -0.0000 -0.0000 1.0000
vn -0.0000 -1.0000 -0.0000
vn -0.0000 1.0000 -0.0000
vt 0.865657 0.179426
vt 0.911686 0.179426
vt 0.911686 0.225455
vt 0.865657 0.225455
vt 0.911686 0.271484
vt 0.865657 0.271484
vt 0.911686 0.317513
vt 0.865657 0.317513
vt 0.911686 0.363542
vt 0.865657 0.363542
vt 0.819628 0.271484
vt 0.819628 0.317513
vt 0.957715 0.271484
vt 0.957715 0.317513
s 0
usemtl Textures
f 195/219/68 196/220/68 198/221/68 197/222/68
f 197/222/69 198/221/69 202/223/69 201/224/69
f 201/224/70 202/223/70 200/225/70 199/226/70
f 199/226/71 200/225/71 196/227/71 195/228/71
f 197/229/72 201/224/72 199/226/72 195/230/72
f 202/223/73 198/231/73 196/232/73 200/225/73
o Plane
v 1.448740 0.519510 -1.044788
v 1.448740 0.519510 -1.780200
v 1.448740 1.214316 -1.044788
v 1.448740 1.214316 -1.780200
v 1.448740 0.519510 -0.095407
v 1.448740 0.519510 -0.830819
v 1.448740 1.214316 -0.095407
v 1.448740 1.214316 -0.830819
v 1.448740 0.519510 0.823100
v 1.448740 0.519510 0.087689
v 1.448740 1.214316 0.823100
v 1.448740 1.214316 0.087689
v 1.448740 0.519510 1.780200
v 1.448740 0.519510 1.044788
v 1.448740 1.214316 1.780200
v 1.448740 1.214316 1.044788
vn 1.0000 -0.0000 -0.0000
vt 0.004045 0.502529
vt 0.192158 0.502529
vt 0.192158 0.748711
vt 0.004045 0.749687
s 0
usemtl Textures
f 203/233/74 204/234/74 206/235/74 205/236/74
f 207/233/74 208/234/74 210/235/74 209/236/74
f 211/233/74 212/234/74 214/235/74 213/236/74
f 215/233/74 216/234/74 218/235/74 217/236/74
o Cube.003
v 1.308392 1.283716 -0.743495
v 1.308392 0.983750 -0.743495
v 1.308392 1.283716 -1.049448
v 1.308392 0.983750 -1.049448
vn -1.0000 -0.0000 -0.0000
vt 0.660515 0.125990
vt 0.659785 0.002994
vt 0.538103 0.003116
vt 0.537857 0.126112
s 0
usemtl Textures
f 219/237/75 221/240/75 222/239/75 220/238/75
o Plane.003
v 1.378400 1.272913 -1.311726
v 1.412592 1.393593 -1.311726
v 1.378400 1.272913 -1.483482
v 1.412592 1.393593 -1.483482
v 1.478334 1.232874 -1.311726
v 1.477523 1.394845 -1.311726
v 1.478334 1.232874 -1.483482
v 1.477523 1.394845 -1.483482
vn -0.9621 0.2726 -0.0000
vn -0.0000 -0.0000 -1.0000
vn -0.0000 -0.0000 1.0000
vn -0.3719 -0.9283 -0.0000
vn -0.0193 0.9998 -0.0000
vt 0.006508 0.443811
vt 0.057174 0.443811
vt 0.057174 0.494477
vt 0.006508 0.494477
vt 0.006517 0.444238
vt 0.057165 0.444238
vt 0.057165 0.494886
vt 0.006517 0.494886
vt 0.003779 0.443888
vt 0.056802 0.443888
vt 0.056802 0.496910
vt 0.003779 0.496910
vt 0.069980 0.444980
vt 0.119980 0.444980
vt 0.119980 0.494980
vt 0.069980 0.494980
vt 0.007614 0.446885
vt 0.056905 0.446885
vt 0.056905 0.496176
vt 0.007614 0.496176
s 0
usemtl Textures
f 223/241/76 224/242/76 226/243/76 225/244/76
f 225/245/77 226/246/77 230/247/77 229/248/77
f 227/249/78 228/250/78 224/251/78 223/252/78
f 225/253/79 229/254/79 227/255/79 223/256/79
f 230/257/80 226/258/80 224/259/80 228/260/80
o Plane.004
v 1.378400 1.272913 -0.372695
v 1.412592 1.393593 -0.372695
v 1.378400 1.272913 -0.544450
v 1.412592 1.393593 -0.544450
v 1.478334 1.232874 -0.372695
v 1.477523 1.394845 -0.372695
v 1.478334 1.232874 -0.544450
v 1.477523 1.394845 -0.544450
vn -0.9621 0.2726 -0.0000
vn -0.0000 -0.0000 -1.0000
vn -0.0000 -0.0000 1.0000
vn -0.3719 -0.9283 -0.0000
vn -0.0193 0.9998 -0.0000
vt 0.006508 0.443811
vt 0.057174 0.443811
vt 0.057174 0.494477
vt 0.006508 0.494477
vt 0.006517 0.444238
vt 0.057165 0.444238
vt 0.057165 0.494886
vt 0.006517 0.494886
vt 0.003779 0.443888
vt 0.056802 0.443888
vt 0.056802 0.496910
vt 0.003779 0.496910
vt 0.069980 0.444980
vt 0.119980 0.444980
vt 0.119980 0.494980
vt 0.069980 0.494980
vt 0.007614 0.446885
vt 0.056905 0.446885
vt 0.056905 0.496176
vt 0.007614 0.496176
s 0
usemtl Textures
f 231/261/81 232/262/81 234/263/81 233/264/81
f 233/265/82 234/266/82 238/267/82 237/268/82
f 235/269/83 236/270/83 232/271/83 231/272/83
f 233/273/84 237/274/84 235/275/84 231/276/84
f 238/277/85 234/278/85 232/279/85 236/280/85
o Plane.010
v 1.378400 1.272913 0.553628
v 1.412592 1.393593 0.553628
v 1.378400 1.272913 0.381873
v 1.412592 1.393593 0.381873
v 1.478334 1.232874 0.553628
v 1.477523 1.394845 0.553628
v 1.478334 1.232874 0.381873
v 1.477523 1.394845 0.381873
vn -0.9621 0.2726 -0.0000
vn -0.0000 -0.0000 -1.0000
vn -0.0000 -0.0000 1.0000
vn -0.3719 -0.9283 -0.0000
vn -0.0193 0.9998 -0.0000
vt 0.006508 0.443811
vt 0.057174 0.443811
vt 0.057174 0.494477
vt 0.006508 0.494477
vt 0.006517 0.444238
vt 0.057165 0.444238
vt 0.057165 0.494886
vt 0.006517 0.494886
vt 0.003779 0.443888
vt 0.056802 0.443888
vt 0.056802 0.496910
vt 0.003779 0.496910
vt 0.069980 0.444980
vt 0.119980 0.444980
vt 0.119980 0.494980
vt 0.069980 0.494980
vt 0.007614 0.446885
vt 0.056905 0.446885
vt 0.056905 0.496176
vt 0.007614 0.496176
s 0
usemtl Textures
f 239/281/86 240/282/86 242/283/86 241/284/86
f 241/285/87 242/286/87 246/287/87 245/288/87
f 243/289/88 244/290/88 240/291/88 239/292/88
f 241/293/89 245/294/89 243/295/89 239/296/89
f 246/297/90 242/298/90 240/299/90 244/300/90
o Plane.011
v 1.378400 1.272913 1.511137
v 1.412592 1.393593 1.511137
v 1.378400 1.272913 1.339382
v 1.412592 1.393593 1.339382
v 1.478334 1.232874 1.511137
v 1.477523 1.394845 1.511137
v 1.478334 1.232874 1.339382
v 1.477523 1.394845 1.339382
vn -0.9621 0.2726 -0.0000
vn -0.0000 -0.0000 -1.0000
vn -0.0000 -0.0000 1.0000
vn -0.3719 -0.9283 -0.0000
vn -0.0193 0.9998 -0.0000
vt 0.006508 0.443811
vt 0.057174 0.443811
vt 0.057174 0.494477
vt 0.006508 0.494477
vt 0.006517 0.444238
vt 0.057165 0.444238
vt 0.057165 0.494886
vt 0.006517 0.494886
vt 0.003779 0.443888
vt 0.056802 0.443888
vt 0.056802 0.496910
vt 0.003779 0.496910
vt 0.069980 0.444980
vt 0.119980 0.444980
vt 0.119980 0.494980
vt 0.069980 0.494980
vt 0.007614 0.446885
vt 0.056905 0.446885
vt 0.056905 0.496176
vt 0.007614 0.496176
s 0
usemtl Textures
f 247/301/91 248/302/91 250/303/91 249/304/91
f 249/305/92 250/306/92 254/307/92 253/308/92
f 251/309/93 252/310/93 248/311/93 247/312/93
f 249/313/94 253/314/94 251/315/94 247/316/94
f 254/317/95 250/318/95 248/319/95 252/320/95
