# Blender 3.6.0
# www.blender.org
mtllib superlab_pipe.mtl
o Cylinder.004
v -0.189393 1.512108 -0.514647
v -0.239639 1.059361 -0.715819
v -0.239639 1.596973 -0.715819
v -0.144173 1.059361 -0.716601
v -0.144173 1.596973 -0.715534
v -0.095435 1.059361 -0.674529
v -0.095435 1.643090 -0.672751
v -0.088565 1.059361 -0.563442
v -0.088565 1.688947 -0.563442
v -0.129436 1.059361 -0.520878
v -0.129436 1.708936 -0.520878
v -0.191989 1.059361 -0.508020
v -0.191989 1.709222 -0.503326
v -0.253452 1.059361 -0.519361
v -0.253452 1.708936 -0.520855
v -0.298284 1.059361 -0.567014
v -0.298284 1.688947 -0.567014
v -0.292965 1.059361 -0.672750
v -0.292966 1.643090 -0.672892
v -0.239639 1.635847 -0.760667
v -0.239639 1.635847 -3.207040
v -0.144173 1.635920 -0.760667
v -0.144173 1.635066 -3.207040
v -0.095435 1.678844 -0.715875
v -0.095435 1.677137 -3.207040
v -0.088565 1.788225 -0.685303
v -0.088565 1.788225 -3.207040
v -0.129436 1.830789 -0.653318
v -0.129436 1.830789 -3.207040
v -0.191989 1.843646 -0.651790
v -0.191989 1.843646 -3.207040
v -0.253452 1.830812 -0.653318
v -0.253452 1.832306 -3.207040
v -0.298284 1.784652 -0.681462
v -0.298284 1.784652 -3.207040
v -0.292965 1.678917 -0.715875
v -0.292966 1.678917 -3.207040
vn -0.0026 0.0010 -1.0000
vn 0.9981 0.0001 -0.0622
vn 0.6561 0.0019 -0.7547
vn -0.6277 -0.0001 -0.7784
vn 0.2362 -0.0035 0.9717
vn -0.2286 -0.0024 0.9735
vn 0.7213 -0.0000 0.6926
vn -0.7230 0.0008 0.6908
vn -0.9987 -0.0000 -0.0502
vn -0.0037 -1.0000 0.0002
vn 0.9981 -0.0622 -0.0000
vn 0.6571 -0.7538 0.0004
vn -0.6283 -0.7780 -0.0000
vn 0.2013 0.9795 -0.0000
vn -0.1930 0.9812 0.0003
vn 0.7213 0.6926 -0.0000
vn -0.7229 0.6909 0.0002
vn -0.9987 -0.0502 -0.0000
vn -0.1803 0.7266 0.6629
vn -0.7404 0.5043 0.4444
vn -0.9987 -0.0395 -0.0330
vn -0.7601 -0.4950 -0.4210
vn 0.0013 -0.7564 -0.6541
vn 0.7875 -0.4705 -0.3982
vn 0.9978 -0.0508 -0.0416
vn 0.7618 0.4889 0.4251
vn 0.1775 0.7270 0.6633
vt 0.110849 0.190546
vt 0.121667 0.190546
vt 0.122620 0.268212
vt 0.111802 0.268212
vt 0.078394 0.002225
vt 0.089212 0.002225
vt 0.090165 0.434170
vt 0.079347 0.434170
vt 0.090165 0.268212
vt 0.089212 0.190546
vt 0.002667 0.190546
vt 0.003620 0.268212
vt 0.045940 0.190546
vt 0.056758 0.190546
vt 0.057711 0.268212
vt 0.046893 0.268212
vt 0.035122 0.190546
vt 0.036075 0.268212
vt 0.057711 0.434170
vt 0.056758 0.002225
vt 0.014438 0.268212
vt 0.013486 0.190546
vt 0.110849 0.002225
vt 0.121667 0.002225
vt 0.122620 0.434170
vt 0.111802 0.434170
vt 0.002667 0.002225
vt 0.003620 0.434170
vt 0.045940 0.002225
vt 0.046893 0.434170
vt 0.035122 0.002225
vt 0.036075 0.434170
vt 0.014438 0.434170
vt 0.013486 0.002225
vt 0.036075 0.255426
vt 0.046893 0.255426
vt 0.045940 0.203332
vt 0.035122 0.203332
vt 0.014438 0.255426
vt 0.013486 0.203332
vt 0.003620 0.255426
vt 0.002667 0.203332
vt 0.121667 0.203332
vt 0.122620 0.255426
vt 0.111802 0.255426
vt 0.110849 0.203332
vt 0.090165 0.255426
vt 0.089212 0.203332
vt 0.079347 0.255426
vt 0.078394 0.203332
vt 0.057711 0.255426
vt 0.056758 0.203332
s 0
usemtl Textures
f 4/1/1 2/2/1 3/3/1 5/4/1
f 8/5/2 6/6/2 7/7/2 9/8/2
f 4/1/3 5/4/3 7/9/3 6/10/3
f 2/2/4 18/11/4 19/12/4 3/3/4
f 12/13/5 10/14/5 11/15/5 13/16/5
f 14/17/6 12/13/6 13/16/6 15/18/6
f 8/5/7 9/8/7 11/19/7 10/20/7
f 14/17/8 15/18/8 17/21/8 16/22/8
f 18/11/9 16/22/9 17/21/9 19/12/9
f 22/23/10 20/24/10 21/25/10 23/26/10
f 26/5/11 24/6/11 25/7/11 27/8/11
f 22/23/12 23/26/12 25/7/12 24/6/12
f 20/24/13 36/27/13 37/28/13 21/25/13
f 30/29/14 28/20/14 29/19/14 31/30/14
f 32/31/15 30/29/15 31/30/15 33/32/15
f 26/5/16 27/8/16 29/19/16 28/20/16
f 32/31/17 33/32/17 35/33/17 34/34/17
f 36/27/18 34/34/18 35/33/18 37/28/18
f 15/35/19 13/36/19 30/37/19 32/38/19
f 17/39/20 15/35/20 32/38/20 34/40/20
f 19/41/21 17/39/21 34/40/21 36/42/21
f 19/41/22 36/42/22 20/43/22 3/44/22
f 5/45/23 3/44/23 20/43/23 22/46/23
f 7/47/24 5/45/24 22/46/24 24/48/24
f 9/49/25 7/47/25 24/48/25 26/50/25
f 11/51/26 9/49/26 26/50/26 28/52/26
f 13/36/27 11/51/27 28/52/27 30/37/27
o Plane.013
v -0.313795 1.255822 -0.536396
v -0.313795 1.255822 -0.705348
v -0.313795 1.086869 -0.536396
v -0.313795 1.086869 -0.705349
vn -1.0000 -0.0000 -0.0000
vt 0.808342 0.234826
vt 0.689705 0.234826
vt 0.689705 0.124549
vt 0.808342 0.124549
s 0
usemtl Textures
f 38/53/28 39/54/28 41/55/28 40/56/28
