# Blender 3.6.0
# www.blender.org
mtllib superlab_mixer.mtl.mtl
o Cube.001
v -0.335186 0.361013 -0.799515
v -0.335186 0.062186 -0.799515
v -0.334355 0.361013 0.388377
v -0.334355 0.062186 0.388377
v -0.688988 0.361013 -0.804624
v -0.688988 0.062186 -0.804624
v -0.699324 0.361013 0.386766
v -0.699324 0.062186 0.386766
v -0.345733 0.230334 0.807128
v -0.330207 0.065097 0.798360
v -0.345733 0.230334 0.378333
v -0.330207 0.065097 0.387156
v 0.412527 0.230334 0.804432
v 0.396946 0.065097 0.795775
v 0.409832 0.230334 0.383724
v 0.394362 0.065097 0.392326
v 0.386225 0.516466 0.520989
v 0.396250 0.516466 0.617589
v 0.360234 0.241310 0.707783
v 0.360234 0.516466 0.707783
v 0.286428 0.241310 0.770908
v 0.286428 0.516466 0.770908
v 0.191741 0.241310 0.792504
v 0.191741 0.516466 0.792504
v 0.097864 0.241310 0.767622
v 0.097864 0.516466 0.767622
v 0.026302 0.241310 0.701963
v 0.026302 0.516466 0.701963
v -0.006549 0.241310 0.610569
v -0.006549 0.516466 0.610569
v 0.006836 0.241310 0.514377
v 0.006836 0.516466 0.514377
v 0.063390 0.241310 0.435424
v 0.063390 0.516466 0.435424
v 0.150158 0.241310 0.391796
v 0.150158 0.516466 0.391796
v 0.247262 0.241310 0.393488
v 0.247262 0.516466 0.393488
v 0.332457 0.516466 0.440113
v 0.088987 0.733116 -0.380707
v 0.261721 0.733116 -0.314054
v 0.383694 0.733116 -0.174762
v 0.426963 0.733116 0.005258
v 0.381617 0.733116 0.184767
v 0.258043 0.733116 0.322640
v 0.084551 0.733116 0.387294
v -0.099115 0.733116 0.363915
v -0.250879 0.733116 0.257861
v -0.335972 0.733116 0.093426
v -0.334903 0.733116 -0.091718
v -0.247915 0.733116 -0.255158
v -0.094936 0.733116 -0.359452
v 0.040143 0.856548 0.003024
v 0.090645 0.002327 -0.383112
v 0.090645 0.732389 -0.383112
v 0.262142 0.002327 -0.316936
v 0.262142 0.732389 -0.316936
v 0.381180 0.002327 0.178315
v 0.381180 0.732389 0.178315
v 0.258491 0.002327 0.315202
v 0.258491 0.732389 0.315202
v 0.086240 0.002327 0.379392
v 0.086240 0.732389 0.379392
v -0.096111 0.002327 0.356181
v -0.096111 0.732389 0.356181
v -0.246788 0.002327 0.250886
v -0.246788 0.732389 0.250886
v -0.331273 0.002327 0.087628
v -0.331273 0.732389 0.087628
v -0.330211 0.002327 -0.096191
v -0.330211 0.732389 -0.096191
v -0.243846 0.002327 -0.258462
v -0.243846 0.732389 -0.258462
v -0.091962 0.002327 -0.362009
v -0.091962 0.732389 -0.362009
v -0.123125 0.151535 -0.797028
v -0.123125 0.509052 -0.797028
v -0.036386 0.151535 -0.764579
v -0.036386 0.509052 -0.764579
v 0.025337 0.151535 -0.695537
v 0.025337 0.509052 -0.695537
v 0.047905 0.151535 -0.605719
v 0.047905 0.509052 -0.605719
v 0.026148 0.151535 -0.515701
v 0.026148 0.509052 -0.515701
v -0.034951 0.151535 -0.446105
v -0.034951 0.509052 -0.446105
v -0.121393 0.151535 -0.412876
v -0.121393 0.509052 -0.412876
v -0.213377 0.151535 -0.423624
v -0.213377 0.509052 -0.423624
v -0.289830 0.151535 -0.475888
v -0.289830 0.509052 -0.475888
v -0.333238 0.151535 -0.557695
v -0.333238 0.509052 -0.557695
v -0.333655 0.151535 -0.650304
v -0.333655 0.509052 -0.650304
v -0.290987 0.151535 -0.732500
v -0.290987 0.509052 -0.732500
v -0.215009 0.151535 -0.785451
v -0.215009 0.509052 -0.785451
v 0.372063 0.067969 -0.743993
v 0.372063 0.721865 -0.743993
v 0.416362 0.067969 -0.662665
v 0.416362 0.721865 -0.662665
v 0.417793 0.067969 -0.570066
v 0.417793 0.721865 -0.570066
v 0.376027 0.067969 -0.487409
v 0.376027 0.721865 -0.487409
v 0.300633 0.067969 -0.433629
v 0.300633 0.721865 -0.433629
v 0.208881 0.067969 -0.421048
v 0.208881 0.721865 -0.421048
v 0.121792 0.067969 -0.452546
v 0.121792 0.721865 -0.452546
v 0.059317 0.067969 -0.520908
v 0.059317 0.721865 -0.520908
v 0.035767 0.067969 -0.610474
v 0.035767 0.721865 -0.610474
v 0.056538 0.067969 -0.700724
v 0.056538 0.721865 -0.700724
v 0.116872 0.067969 -0.770984
v 0.116872 0.721865 -0.770984
v 0.202946 0.067969 -0.805158
v 0.202946 0.721865 -0.805158
v 0.295042 0.067969 -0.795417
v 0.295042 0.721865 -0.795417
vn 1.0000 -0.0000 -0.0007
vn -0.0044 -0.0000 1.0000
vn -1.0000 -0.0000 -0.0087
vn 0.0144 -0.0000 -0.9999
vn -0.0000 1.0000 -0.0000
vn -0.0000 -1.0000 -0.0000
vn 0.0036 -0.0527 0.9986
vn 0.2562 -0.0000 -0.9666
vn -0.9956 -0.0935 -0.0000
vn 0.8130 -0.0000 0.5823
vn -0.2224 -0.0000 -0.9750
vn 0.6761 -0.0000 -0.7368
vn 0.9411 -0.0000 -0.3383
vn 0.9905 -0.0000 0.1378
vn 0.4492 -0.0000 0.8934
vn -0.0174 -0.0000 0.9998
vn -0.6500 -0.0000 -0.7600
vn -0.1124 -0.9500 0.2913
vn -0.2349 -0.9500 0.2057
vn -0.3036 -0.9500 0.0730
vn -0.3027 -0.9500 -0.0765
vn -0.2325 -0.9500 -0.2084
vn -0.1090 -0.9500 -0.2926
vn 0.0394 -0.9500 -0.3097
vn 0.1788 -0.9500 -0.2559
vn 0.2773 -0.9500 -0.1435
vn 0.3122 -0.9500 0.0018
vn 0.2756 -0.9500 0.1467
vn 0.1759 -0.9500 0.2580
vn 0.0358 -0.9500 0.3101
vn 0.8828 -0.0000 0.4698
vn -0.3600 -0.0000 0.9330
vn 0.1148 -0.0000 0.9934
vn -0.7447 -0.0000 -0.6674
vn -0.3492 -0.0000 -0.9370
vn 0.1263 -0.0000 -0.9920
vn 0.5728 -0.0000 -0.8197
vn 0.8881 -0.0000 -0.4596
vn 1.0000 -0.0000 0.0058
vn 0.5633 -0.0000 0.8263
vn 0.1250 -0.0000 0.9922
vn -0.7455 -0.0000 0.6665
vn -0.9699 -0.0000 0.2437
vn -0.9720 -0.0000 -0.2349
vn -0.7515 -0.0000 -0.6597
vn -0.3588 -0.0000 -0.9334
vn 0.1161 -0.0000 -0.9932
vn 0.5643 -0.0000 -0.8255
vn 0.8834 -0.0000 -0.4687
vn 1.0000 -0.0000 -0.0045
vn 0.8875 -0.0000 0.4607
vn 0.5718 -0.0000 0.8204
vn -0.3504 -0.0000 0.9366
vn -0.5553 -0.0000 0.8317
vn -0.9999 -0.0000 0.0155
vn -0.8925 -0.0000 -0.4510
vn -0.5807 -0.0000 -0.8141
vn -0.1359 -0.0000 -0.9907
vn 0.3401 -0.0000 -0.9404
vn 0.7382 -0.0000 -0.6746
vn 0.9671 -0.0000 -0.2543
vn 0.9745 -0.0000 0.2243
vn 0.7587 -0.0000 0.6515
vn 0.3690 -0.0000 0.9294
vn -0.1052 -0.0000 0.9945
vn -0.8782 -0.0000 0.4783
vn 0.9956 -0.0935 -0.0064
vn -0.9905 -0.0000 -0.1378
vn -0.6761 -0.0000 0.7368
vn -0.8967 0.3035 0.3223
vn 0.0071 -0.0527 -0.9986
vn -0.9723 -0.0000 0.2337
vt 0.330715 0.834858
vt 0.371495 0.834858
vt 0.371495 0.875638
vt 0.330715 0.875638
vt 0.325832 0.889310
vt 0.366613 0.889310
vt 0.366613 0.930091
vt 0.325832 0.930091
vt 0.330715 0.916419
vt 0.371495 0.916419
vt 0.371495 0.957199
vt 0.330715 0.957199
vt 0.257473 0.881027
vt 0.298253 0.881027
vt 0.298253 0.921808
vt 0.257473 0.921808
vt 0.288940 0.879528
vt 0.345381 0.879528
vt 0.345381 0.997996
vt 0.288940 0.997996
vt 0.412276 0.916419
vt 0.412276 0.957199
vt 0.835585 0.191349
vt 0.835585 0.138242
vt 0.953100 0.138242
vt 0.953100 0.191349
vt 0.252801 0.924556
vt 0.252801 0.915746
vt 0.372199 0.915746
vt 0.372199 0.924556
vt 0.921776 0.314738
vt 0.921776 0.157639
vt 0.849004 0.157639
vt 0.849004 0.314738
vt 0.869213 0.190082
vt 0.869213 0.130846
vt 0.991146 0.130846
vt 0.991146 0.190082
vt 0.252801 0.959792
vt 0.252801 0.950983
vt 0.372199 0.950983
vt 0.372199 0.959792
vt 0.625000 0.750000
vt 0.625000 0.500000
vt 0.875000 0.500000
vt 0.875000 0.750000
vt 0.252801 0.906937
vt 0.372199 0.906937
vt 0.252801 0.933365
vt 0.372199 0.933365
vt 0.252801 0.942174
vt 0.372199 0.942174
vt 0.252801 0.968601
vt 0.372199 0.968601
vt 0.353147 0.915937
vt 0.358646 0.938250
vt 0.353147 0.960563
vt 0.337908 0.977764
vt 0.337908 0.898736
vt 0.274695 0.970088
vt 0.264015 0.949740
vt 0.274695 0.906411
vt 0.264015 0.926760
vt 0.252801 0.977411
vt 0.372199 0.977411
vt 0.316421 0.890587
vt 0.316421 0.985913
vt 0.293608 0.893357
vt 0.293608 0.983143
vt 0.252801 0.898128
vt 0.372199 0.898128
vt 0.304257 0.974197
vt 0.304257 0.928712
vt 0.325395 0.968987
vt 0.341691 0.954550
vt 0.349411 0.934194
vt 0.346786 0.912582
vt 0.334419 0.894665
vt 0.315142 0.884548
vt 0.293372 0.884548
vt 0.274095 0.894665
vt 0.261727 0.912582
vt 0.259103 0.934194
vt 0.266823 0.954550
vt 0.283119 0.968987
vt 0.273058 0.997293
vt 0.273058 0.878467
vt 0.282017 0.878467
vt 0.282017 0.997293
vt 0.362645 0.997293
vt 0.362645 0.878467
vt 0.371603 0.878467
vt 0.371603 0.997293
vt 0.255141 0.997293
vt 0.255141 0.878467
vt 0.264099 0.878467
vt 0.264099 0.997293
vt 0.326810 0.997293
vt 0.326810 0.878467
vt 0.335769 0.878467
vt 0.335769 0.997293
vt 0.317851 0.997293
vt 0.317851 0.878467
vt 0.308893 0.997293
vt 0.308893 0.878467
vt 0.299934 0.997293
vt 0.299934 0.878467
vt 0.290975 0.997293
vt 0.290975 0.878467
vt 0.356328 0.966873
vt 0.338964 0.982256
vt 0.364554 0.945183
vt 0.316441 0.987807
vt 0.293918 0.982256
vt 0.276554 0.966873
vt 0.268329 0.945183
vt 0.271125 0.922155
vt 0.284302 0.903064
vt 0.304843 0.892284
vt 0.328040 0.892284
vt 0.348580 0.903064
vt 0.361758 0.922155
vt 0.256249 0.882030
vt 0.265049 0.882030
vt 0.265049 0.993963
vt 0.256249 0.993963
vt 0.353050 0.882030
vt 0.361850 0.882030
vt 0.361850 0.993963
vt 0.353050 0.993963
vt 0.344250 0.882030
vt 0.344250 0.993963
vt 0.335450 0.882030
vt 0.335450 0.993963
vt 0.326650 0.882030
vt 0.326650 0.993963
vt 0.317849 0.882030
vt 0.317849 0.993963
vt 0.309049 0.882030
vt 0.309049 0.993963
vt 0.300249 0.882030
vt 0.300249 0.993963
vt 0.291449 0.882030
vt 0.291449 0.993963
vt 0.282649 0.882030
vt 0.282649 0.993963
vt 0.273849 0.882030
vt 0.273849 0.993963
vt 0.370650 0.882030
vt 0.370650 0.993963
vt 0.828458 0.135744
vt 0.972297 0.135713
vt 0.969377 0.194794
vt 0.831439 0.194824
vt 0.361678 0.887316
vt 0.264878 0.949951
vt 0.264971 0.887172
vt 0.361679 0.993131
vt 0.264971 0.993339
vt 0.904724 0.284113
vt 0.836251 0.284113
vt 0.835172 0.164017
vt 0.906573 0.164017
s 0
usemtl Textures
f 1/1/1 3/4/1 4/3/1 2/2/1
f 3/5/2 7/8/2 8/7/2 4/6/2
f 7/9/3 5/12/3 6/11/3 8/10/3
f 5/13/4 1/16/4 2/15/4 6/14/4
f 3/17/5 1/20/5 5/19/5 7/18/5
f 8/10/6 6/11/6 2/22/6 4/21/6
f 9/23/7 10/26/7 14/25/7 13/24/7
f 25/27/8 26/30/8 24/29/8 23/28/8
f 11/31/9 12/34/9 10/33/9 9/32/9
f 9/35/5 13/38/5 15/37/5 11/36/5
f 33/39/10 34/42/10 32/41/10 31/40/10
f 14/43/6 10/46/6 12/45/6 16/44/6
f 23/28/11 24/29/11 22/48/11 21/47/11
f 27/49/12 28/50/12 26/30/12 25/27/12
f 29/51/13 30/52/13 28/50/13 27/49/13
f 31/40/14 32/41/14 30/52/14 29/51/14
f 35/53/15 36/54/15 34/42/15 33/39/15
f 18/55/6 39/57/6 17/56/6
f 39/57/6 18/55/6 20/59/6 38/58/6
f 32/60/6 26/62/6 30/61/6
f 30/61/6 26/62/6 28/63/6
f 37/64/16 38/65/16 36/54/16 35/53/16
f 22/66/6 36/67/6 38/58/6 20/59/6
f 24/68/6 34/69/6 36/67/6 22/66/6
f 26/62/6 32/60/6 34/69/6 24/68/6
f 21/47/17 22/48/17 20/71/17 19/70/17
f 40/72/18 41/74/18 53/73/18
f 41/74/19 42/75/19 53/73/19
f 42/75/20 43/76/20 53/73/20
f 43/76/21 44/77/21 53/73/21
f 44/77/22 45/78/22 53/73/22
f 45/78/23 46/79/23 53/73/23
f 46/79/24 47/80/24 53/73/24
f 47/80/25 48/81/25 53/73/25
f 48/81/26 49/82/26 53/73/26
f 49/82/27 50/83/27 53/73/27
f 50/83/28 51/84/28 53/73/28
f 51/84/29 52/85/29 53/73/29
f 52/85/30 40/72/30 53/73/30
f 73/86/31 71/89/31 70/88/31 72/87/31
f 57/90/32 55/93/32 54/92/32 56/91/32
f 55/94/33 75/97/33 74/96/33 54/95/33
f 61/98/34 59/101/34 58/100/34 60/99/34
f 63/102/35 61/98/35 60/99/35 62/103/35
f 65/104/36 63/102/36 62/103/36 64/105/36
f 67/106/37 65/104/37 64/105/37 66/107/37
f 69/108/38 67/106/38 66/107/38 68/109/38
f 71/89/39 69/108/39 68/109/39 70/88/39
f 75/97/40 73/86/40 72/87/40 74/96/40
f 81/110/6 83/112/6 79/111/6
f 79/111/6 83/112/6 77/113/6
f 77/113/6 99/115/6 101/114/6
f 99/115/6 95/117/6 97/116/6
f 95/117/6 91/119/6 93/118/6
f 91/119/6 87/121/6 89/120/6
f 87/121/6 83/112/6 85/122/6
f 77/113/6 95/117/6 99/115/6
f 95/117/6 87/121/6 91/119/6
f 76/123/41 77/126/41 101/125/41 100/124/41
f 80/127/42 81/130/42 79/129/42 78/128/42
f 82/131/43 83/132/43 81/130/43 80/127/43
f 84/133/44 85/134/44 83/132/44 82/131/44
f 86/135/45 87/136/45 85/134/45 84/133/45
f 88/137/46 89/138/46 87/136/46 86/135/46
f 90/139/47 91/140/47 89/138/47 88/137/47
f 92/141/48 93/142/48 91/140/48 90/139/48
f 94/143/49 95/144/49 93/142/49 92/141/49
f 96/145/50 97/146/50 95/144/50 94/143/50
f 98/147/51 99/148/51 97/146/51 96/145/51
f 100/124/52 101/125/52 99/148/52 98/147/52
f 83/112/6 87/121/6 95/117/6 77/113/6
f 78/128/53 79/129/53 77/150/53 76/149/53
f 107/110/6 109/112/6 105/111/6
f 105/111/6 109/112/6 103/113/6
f 103/113/6 125/115/6 127/114/6
f 125/115/6 121/117/6 123/116/6
f 121/117/6 117/119/6 119/118/6
f 117/119/6 113/121/6 115/120/6
f 113/121/6 109/112/6 111/122/6
f 103/113/6 121/117/6 125/115/6
f 121/117/6 113/121/6 117/119/6
f 102/123/54 103/126/54 127/125/54 126/124/54
f 106/127/55 107/130/55 105/129/55 104/128/55
f 108/131/56 109/132/56 107/130/56 106/127/56
f 110/133/57 111/134/57 109/132/57 108/131/57
f 112/135/58 113/136/58 111/134/58 110/133/58
f 114/137/59 115/138/59 113/136/59 112/135/59
f 116/139/60 117/140/60 115/138/60 114/137/60
f 118/141/61 119/142/61 117/140/61 116/139/61
f 120/143/62 121/144/62 119/142/62 118/141/62
f 122/145/63 123/146/63 121/144/63 120/143/63
f 124/147/64 125/148/64 123/146/64 122/145/64
f 126/124/65 127/125/65 125/148/65 124/147/65
f 109/112/6 113/121/6 121/117/6 103/113/6
f 104/128/66 105/129/66 103/150/66 102/149/66
f 13/151/67 14/154/67 16/153/67 15/152/67
f 19/155/68 20/157/68 17/156/68
f 37/158/69 17/156/69 38/159/69
f 17/156/70 37/158/70 19/155/70
f 12/160/71 11/163/71 15/162/71 16/161/71
f 56/91/72 58/100/72 59/101/72 57/90/72
