# Blender 3.6.0
# www.blender.org
mtllib camera.mtl
o Cube
v -0.135048 0.368596 -0.434551
v -0.135048 0.089704 -0.434551
v -0.135048 0.368596 0.434551
v -0.135048 0.089704 0.434551
v 0.135048 0.368596 -0.434551
v 0.135048 0.089704 -0.434551
v 0.135048 0.368596 0.434551
v 0.135048 0.089704 0.434551
vn -0.0000 1.0000 -0.0000
vn -0.0000 -0.0000 1.0000
vn 1.0000 -0.0000 -0.0000
vn -0.0000 -1.0000 -0.0000
vn -1.0000 -0.0000 -0.0000
vn -0.0000 -0.0000 -1.0000
vt 0.625000 0.500000
vt 0.875000 0.500000
vt 0.875000 0.750000
vt 0.625000 0.750000
vt 0.000346 0.499923
vt 0.515749 0.498961
vt 0.516257 0.999981
vt 0.000346 1.000000
vt 0.375000 0.000000
vt 0.625000 0.000000
vt 0.625000 0.250000
vt 0.375000 0.250000
vt 0.417987 0.233366
vt 0.667987 0.233366
vt 0.667987 0.483366
vt 0.417987 0.483366
vt 0.068061 0.191511
vt 0.587020 0.191511
vt 0.587020 0.441511
vt 0.068061 0.441511
vt 0.375000 0.500000
s 0
usemtl Material
f 1/1/1 3/4/1 7/3/1 5/2/1
f 4/5/2 8/8/2 7/7/2 3/6/2
f 8/9/3 6/12/3 5/11/3 7/10/3
f 6/13/4 8/16/4 4/15/4 2/14/4
f 2/17/5 4/20/5 3/19/5 1/18/5
f 6/12/6 2/21/6 1/1/6 5/11/6
o Cube.001
v -0.140892 0.828999 -0.439956
v -0.140892 0.597863 -0.439956
v -0.140892 0.828999 -0.150824
v -0.140892 0.597863 -0.150824
v 0.140892 0.828999 -0.439956
v 0.140892 0.597863 -0.439956
v 0.140892 0.828999 -0.150824
v 0.140892 0.597863 -0.150824
vn -0.0000 1.0000 -0.0000
vn -0.0000 -0.0000 1.0000
vn 1.0000 -0.0000 -0.0000
vn -0.0000 -1.0000 -0.0000
vn -1.0000 -0.0000 -0.0000
vn -0.0000 -0.0000 -1.0000
vt 0.703268 0.016999
vt 0.986446 0.016999
vt 0.986446 0.300177
vt 0.703268 0.300177
vt 0.691079 0.005216
vt 0.996679 0.005216
vt 0.996679 0.310816
vt 0.691079 0.310816
vt 0.695822 0.007024
vt 0.991936 0.007024
vt 0.991936 0.303138
vt 0.695822 0.303138
vt 0.697634 0.008670
vt 0.997469 0.008670
vt 0.997469 0.308505
vt 0.697634 0.308505
vt 0.696330 0.011039
vt 0.991428 0.011039
vt 0.991428 0.306137
vt 0.696330 0.306137
vt 0.698125 0.008754
vt 0.989634 0.008754
vt 0.989634 0.300264
vt 0.698125 0.300264
s 0
usemtl Material
f 9/22/7 11/25/7 15/24/7 13/23/7
f 12/26/8 16/29/8 15/28/8 11/27/8
f 16/30/9 14/33/9 13/32/9 15/31/9
f 14/34/10 16/37/10 12/36/10 10/35/10
f 10/38/11 12/41/11 11/40/11 9/39/11
f 14/42/12 10/45/12 9/44/12 13/43/12
o Plane
v 0.002126 0.133934 0.102415
v -0.002181 0.326793 0.263571
v 0.002126 0.593563 -0.447634
v -0.002181 0.786423 -0.286477
vn -0.9999 -0.0131 -0.0110
vt 0.224034 0.017766
vt 0.665189 0.017766
vt 0.665189 0.458920
vt 0.224034 0.458920
s 0
f 17/46/13 18/47/13 20/48/13 19/49/13
